<?xml version="1.0" encoding="UTF-8"?>
<!--Generator: Apple Native CoreSVG 341-->
<!DOCTYPE svg
PUBLIC "-//W3C//DTD SVG 1.1//EN"
       "http://www.w3.org/Graphics/SVG/1.1/DTD/svg11.dtd">
<svg version="1.1" xmlns="http://www.w3.org/2000/svg" xmlns:xlink="http://www.w3.org/1999/xlink" viewBox="0 0 3300 2200">
 <g id="Notes">
  <rect height="2200" id="artboard" style="fill:white;opacity:1" width="3300" x="0" y="0"/>
  <line style="fill:none;stroke:black;opacity:1;stroke-width:0.5;" x1="263" x2="3036" y1="292" y2="292"/>
  <text style="stroke:none;fill:black;font-family:sans-serif;font-size:13;font-weight:bold;" transform="matrix(1 0 0 1 263 322)">Weight/Scale Variations</text>
  <text style="stroke:none;fill:black;font-family:sans-serif;font-size:13;text-anchor:middle;" transform="matrix(1 0 0 1 559.711 322)">Ultralight</text>
  <text style="stroke:none;fill:black;font-family:sans-serif;font-size:13;text-anchor:middle;" transform="matrix(1 0 0 1 856.422 322)">Thin</text>
  <text style="stroke:none;fill:black;font-family:sans-serif;font-size:13;text-anchor:middle;" transform="matrix(1 0 0 1 1153.13 322)">Light</text>
  <text style="stroke:none;fill:black;font-family:sans-serif;font-size:13;text-anchor:middle;" transform="matrix(1 0 0 1 1449.84 322)">Regular</text>
  <text style="stroke:none;fill:black;font-family:sans-serif;font-size:13;text-anchor:middle;" transform="matrix(1 0 0 1 1746.56 322)">Medium</text>
  <text style="stroke:none;fill:black;font-family:sans-serif;font-size:13;text-anchor:middle;" transform="matrix(1 0 0 1 2043.27 322)">Semibold</text>
  <text style="stroke:none;fill:black;font-family:sans-serif;font-size:13;text-anchor:middle;" transform="matrix(1 0 0 1 2339.98 322)">Bold</text>
  <text style="stroke:none;fill:black;font-family:sans-serif;font-size:13;text-anchor:middle;" transform="matrix(1 0 0 1 2636.69 322)">Heavy</text>
  <text style="stroke:none;fill:black;font-family:sans-serif;font-size:13;text-anchor:middle;" transform="matrix(1 0 0 1 2933.4 322)">Black</text>
  <line style="fill:none;stroke:black;opacity:1;stroke-width:0.5;" x1="263" x2="3036" y1="1903" y2="1903"/>
  <g transform="matrix(0.2 0 0 0.2 263 1933)">
   <path d="m46.2402 4.15039c21.7773 0 39.4531-17.627 39.4531-39.4043s-17.6758-39.4043-39.4531-39.4043c-21.7285 0-39.4043 17.627-39.4043 39.4043s17.6758 39.4043 39.4043 39.4043Zm0-7.42188c-17.6758 0-31.9336-14.3066-31.9336-31.9824s14.2578-31.9824 31.9336-31.9824 31.9824 14.3066 31.9824 31.9824-14.3066 31.9824-31.9824 31.9824Zm3.61328-17.7734v-28.4668c0-2.24609-1.46484-3.75977-3.71094-3.75977-2.14844 0-3.61328 1.51367-3.61328 3.75977v28.4668c0 2.19727 1.46484 3.71094 3.61328 3.71094 2.24609 0 3.71094-1.51367 3.71094-3.71094Zm-17.8223-10.5957h28.418c2.19727 0 3.71094-1.46484 3.71094-3.61328 0-2.19727-1.51367-3.71094-3.71094-3.71094h-28.418c-2.24609 0-3.75977 1.51367-3.75977 3.71094 0 2.14844 1.51367 3.61328 3.75977 3.61328Z"/>
  </g>
  <g transform="matrix(0.2 0 0 0.2 281.506 1933)">
   <path d="m58.5449 14.5508c27.4902 0 49.8047-22.3145 49.8047-49.8047s-22.3145-49.8047-49.8047-49.8047-49.8047 22.3145-49.8047 49.8047 22.3145 49.8047 49.8047 49.8047Zm0-8.30078c-22.9492 0-41.5039-18.5547-41.5039-41.5039s18.5547-41.5039 41.5039-41.5039 41.5039 18.5547 41.5039 41.5039-18.5547 41.5039-41.5039 41.5039Zm4.05273-23.0957v-36.9141c0-2.49023-1.70898-4.19922-4.15039-4.19922-2.39258 0-4.05273 1.70898-4.05273 4.19922v36.9141c0 2.44141 1.66016 4.15039 4.05273 4.15039 2.44141 0 4.15039-1.66016 4.15039-4.15039Zm-22.5586-14.4043h36.9629c2.44141 0 4.15039-1.61133 4.15039-4.00391 0-2.44141-1.70898-4.15039-4.15039-4.15039h-36.9629c-2.49023 0-4.15039 1.70898-4.15039 4.15039 0 2.39258 1.66016 4.00391 4.15039 4.00391Z"/>
  </g>
  <g transform="matrix(0.2 0 0 0.2 304.924 1933)">
   <path d="m74.8535 28.3203c35.1074 0 63.623-28.4668 63.623-63.5742s-28.5156-63.623-63.623-63.623-63.5742 28.5156-63.5742 63.623 28.4668 63.5742 63.5742 63.5742Zm0-9.08203c-30.127 0-54.4922-24.3652-54.4922-54.4922s24.3652-54.4922 54.4922-54.4922 54.4922 24.3652 54.4922 54.4922-24.3652 54.4922-54.4922 54.4922Zm4.44336-30.3223v-48.4863c0-2.73438-1.85547-4.63867-4.54102-4.63867-2.58789 0-4.44336 1.9043-4.44336 4.63867v48.4863c0 2.68555 1.85547 4.58984 4.44336 4.58984 2.68555 0 4.54102-1.85547 4.54102-4.58984Zm-28.7109-19.7754h48.4863c2.68555 0 4.58984-1.80664 4.58984-4.39453 0-2.73438-1.85547-4.58984-4.58984-4.58984h-48.4863c-2.73438 0-4.58984 1.85547-4.58984 4.58984 0 2.58789 1.85547 4.39453 4.58984 4.39453Z"/>
  </g>
  <text style="stroke:none;fill:black;font-family:sans-serif;font-size:13;font-weight:bold;" transform="matrix(1 0 0 1 263 1953)">Design Variations</text>
  <text style="stroke:none;fill:black;font-family:sans-serif;font-size:13;" transform="matrix(1 0 0 1 263 1971)">Symbols are supported in up to nine weights and three scales.</text>
  <text style="stroke:none;fill:black;font-family:sans-serif;font-size:13;" transform="matrix(1 0 0 1 263 1989)">For optimal layout with text and other symbols, vertically align</text>
  <text style="stroke:none;fill:black;font-family:sans-serif;font-size:13;" transform="matrix(1 0 0 1 263 2007)">symbols with the adjacent text.</text>
  <line style="fill:none;stroke:#00AEEF;stroke-width:0.5;opacity:1.0;" x1="776" x2="776" y1="1919" y2="1933"/>
  <g transform="matrix(0.2 0 0 0.2 776 1933)">
   <path d="m16.5527 0.78125c2.58789 0 3.85742-0.976562 4.78516-3.71094l20.5566-57.5195h0.244141l20.6055 57.5195c0.927734 2.73438 2.19727 3.71094 4.73633 3.71094 2.58789 0 4.24805-1.5625 4.24805-4.00391 0-0.830078-0.146484-1.61133-0.537109-2.63672l-22.9004-60.9863c-1.12305-2.97852-3.125-4.49219-6.25-4.49219-3.02734 0-5.07812 1.46484-6.15234 4.44336l-22.9004 61.084c-0.390625 1.02539-0.537109 1.80664-0.537109 2.63672 0 2.44141 1.5625 3.95508 4.10156 3.95508Zm10.2051-20.9473h30.6641c2.00195 0 3.66211-1.66016 3.66211-3.66211 0-2.05078-1.66016-3.66211-3.66211-3.66211h-30.6641c-2.00195 0-3.66211 1.61133-3.66211 3.66211 0 2.00195 1.66016 3.66211 3.66211 3.66211Z"/>
  </g>
  <line style="fill:none;stroke:#00AEEF;stroke-width:0.5;opacity:1.0;" x1="792.836" x2="792.836" y1="1919" y2="1933"/>
  <text style="stroke:none;fill:black;font-family:sans-serif;font-size:13;font-weight:bold;" transform="matrix(1 0 0 1 776 1953)">Margins</text>
  <text style="stroke:none;fill:black;font-family:sans-serif;font-size:13;" transform="matrix(1 0 0 1 776 1971)">Leading and trailing margins on the left and right side of each symbol</text>
  <text style="stroke:none;fill:black;font-family:sans-serif;font-size:13;" transform="matrix(1 0 0 1 776 1989)">can be adjusted by modifying the x-location of the margin guidelines.</text>
  <text style="stroke:none;fill:black;font-family:sans-serif;font-size:13;" transform="matrix(1 0 0 1 776 2007)">Modifications are automatically applied proportionally to all</text>
  <text style="stroke:none;fill:black;font-family:sans-serif;font-size:13;" transform="matrix(1 0 0 1 776 2025)">scales and weights.</text>
  <g transform="matrix(0.2 0 0 0.2 1289 1933)">
   <path d="m14.209 13.1348 7.86133 7.86133c4.29688 4.39453 9.32617 4.10156 13.8672-1.02539l60.6934-68.2129-4.88281-4.88281-60.2539 67.6758c-1.80664 1.95312-3.4668 2.44141-5.81055 0.0976562l-5.17578-5.12695c-2.29492-2.29492-1.80664-3.95508 0.195312-5.81055l67.4805-62.1582-4.88281-4.83398-68.0664 62.5977c-4.98047 4.58984-5.32227 9.47266-1.02539 13.8184Zm44.873-97.4609c-2.05078 2.00195-2.24609 4.88281-1.07422 6.78711 1.12305 1.80664 3.4668 3.02734 6.5918 2.24609 5.85938-1.66016 12.5977-2.39258 18.8965 0.927734l-2.68555 7.12891c-1.61133 4.00391-0.732422 6.88477 1.70898 9.42383l10.2539 10.3027c2.34375 2.39258 4.54102 2.44141 7.08008 1.95312l4.44336-0.732422 2.58789 2.53906-0.195312 2.24609c-0.0976562 2.29492 0.537109 4.29688 2.7832 6.49414l3.36914 3.32031c2.29492 2.29492 5.51758 2.49023 7.8125 0.195312l12.9883-13.0371c2.29492-2.34375 2.14844-5.37109-0.195312-7.66602l-3.41797-3.41797c-2.19727-2.19727-4.05273-3.02734-6.34766-2.88086l-2.34375 0.244141-2.44141-2.44141 1.02539-4.6875c0.634766-2.73438-0.244141-4.98047-2.88086-7.61719l-11.2793-11.1816c-12.9395-12.8418-35.5957-11.0352-46.6797-0.146484Zm7.08008 2.05078c8.78906-6.39648 25.9766-5.66406 33.6914 1.95312l12.3047 12.207c1.02539 1.02539 1.2207 1.80664 0.927734 3.32031l-1.46484 6.64062 6.73828 6.68945 4.39453-0.244141c1.12305-0.0488281 1.51367 0.0488281 2.34375 0.878906l2.53906 2.49023-10.8398 10.8398-2.49023-2.49023c-0.830078-0.878906-0.976562-1.2207-0.927734-2.39258l0.292969-4.3457-6.68945-6.73828-6.83594 1.17188c-1.41602 0.292969-2.05078 0.195312-3.17383-0.878906l-8.93555-8.88672c-1.07422-1.02539-1.17188-1.70898-0.488281-3.36914l4.58984-11.4746c-6.10352-6.34766-17.041-7.51953-25.5859-4.58984-0.683594 0.244141-0.927734-0.390625-0.390625-0.78125Z"/>
  </g>
  <text style="stroke:none;fill:black;font-family:sans-serif;font-size:13;font-weight:bold;" transform="matrix(1 0 0 1 1289 1953)">Exporting</text>
  <text style="stroke:none;fill:black;font-family:sans-serif;font-size:13;" transform="matrix(1 0 0 1 1289 1971)">Symbols should be outlined when exporting to ensure the</text>
  <text style="stroke:none;fill:black;font-family:sans-serif;font-size:13;" transform="matrix(1 0 0 1 1289 1989)">design is preserved when submitting to Xcode.</text>
  <text id="template-version" style="stroke:none;fill:black;font-family:sans-serif;font-size:13;text-anchor:end;" transform="matrix(1 0 0 1 3036 1933)">Template v.2.0</text>
  <text style="stroke:none;fill:black;font-family:sans-serif;font-size:13;text-anchor:end;" transform="matrix(1 0 0 1 3036 1951)">Requires Xcode 12 or greater</text>
  <text id="descriptive-name" style="stroke:none;fill:black;font-family:sans-serif;font-size:13;text-anchor:end;" transform="matrix(1 0 0 1 3036 1969)">Generated from minus</text>
  <text style="stroke:none;fill:black;font-family:sans-serif;font-size:13;text-anchor:end;" transform="matrix(1 0 0 1 3036 1987)">Typeset at 100.0 points</text>
  <text style="stroke:none;fill:black;font-family:sans-serif;font-size:13;" transform="matrix(1 0 0 1 263 726)">Small</text>
  <text style="stroke:none;fill:black;font-family:sans-serif;font-size:13;" transform="matrix(1 0 0 1 263 1156)">Medium</text>
  <text style="stroke:none;fill:black;font-family:sans-serif;font-size:13;" transform="matrix(1 0 0 1 263 1586)">Large</text>
 </g>
 <g id="Guides">
  <g id="H-reference" style="fill:#27AAE1;stroke:none;" transform="matrix(1 0 0 1 339 696)">
   <path d="M0.993654 0L3.63775 0L29.3281-67.1323L30.0303-67.1323L30.0303-70.459L28.1226-70.459ZM11.6885-24.4799L46.9815-24.4799L46.2315-26.7285L12.4385-26.7285ZM55.1196 0L57.7637 0L30.6382-70.459L29.4326-70.459L29.4326-67.1323Z"/>
  </g>
  <line id="Baseline-S" style="fill:none;stroke:#27AAE1;opacity:1;stroke-width:0.5;" x1="263" x2="3036" y1="696" y2="696"/>
  <line id="Capline-S" style="fill:none;stroke:#27AAE1;opacity:1;stroke-width:0.5;" x1="263" x2="3036" y1="625.541" y2="625.541"/>
  <g id="H-reference" style="fill:#27AAE1;stroke:none;" transform="matrix(1 0 0 1 339 1126)">
   <path d="M0.993654 0L3.63775 0L29.3281-67.1323L30.0303-67.1323L30.0303-70.459L28.1226-70.459ZM11.6885-24.4799L46.9815-24.4799L46.2315-26.7285L12.4385-26.7285ZM55.1196 0L57.7637 0L30.6382-70.459L29.4326-70.459L29.4326-67.1323Z"/>
  </g>
  <line id="Baseline-M" style="fill:none;stroke:#27AAE1;opacity:1;stroke-width:0.5;" x1="263" x2="3036" y1="1126" y2="1126"/>
  <line id="Capline-M" style="fill:none;stroke:#27AAE1;opacity:1;stroke-width:0.5;" x1="263" x2="3036" y1="1055.54" y2="1055.54"/>
  <g id="H-reference" style="fill:#27AAE1;stroke:none;" transform="matrix(1 0 0 1 339 1556)">
   <path d="M0.993654 0L3.63775 0L29.3281-67.1323L30.0303-67.1323L30.0303-70.459L28.1226-70.459ZM11.6885-24.4799L46.9815-24.4799L46.2315-26.7285L12.4385-26.7285ZM55.1196 0L57.7637 0L30.6382-70.459L29.4326-70.459L29.4326-67.1323Z"/>
  </g>
  <line id="Baseline-L" style="fill:none;stroke:#27AAE1;opacity:1;stroke-width:0.5;" x1="263" x2="3036" y1="1556" y2="1556"/>
  <line id="Capline-L" style="fill:none;stroke:#27AAE1;opacity:1;stroke-width:0.5;" x1="263" x2="3036" y1="1485.54" y2="1485.54"/>
  <line id="right-margin" style="fill:none;stroke:#00AEEF;stroke-width:0.5;opacity:1.0;" x1="1502.57" x2="1502.57" y1="1030.79" y2="1150.12"/>
  <line id="left-margin" style="fill:none;stroke:#00AEEF;stroke-width:0.5;opacity:1.0;" x1="1397.12" x2="1397.12" y1="1030.79" y2="1150.12"/>
 </g>
 <g id="Symbols">
  <g id="Black-L" transform="matrix(1 0 0 1 2862.21 1556)">
   <path d="M27.7804-23.258L114.614-23.258C120.837-23.258 126.289-28.7116 126.289-35.1881C126.289-41.6646 120.837-47.1181 114.614-47.1181L27.7804-47.1181C21.8283-47.1181 16.084-41.6646 16.084-35.1881C16.084-28.7116 21.8283-23.258 27.7804-23.258Z" data-clipstroke-keyframes="0 8 0 0.67140895 0.17945091 0 1 0.85192114 0.0015862637 0 1 0.34934518 0.49912605"/>
  </g>
  <g id="Heavy-L" transform="matrix(1 0 0 1 2566.3 1556)">
   <path d="M26.266-24.8231L114.535-24.8231C119.956-24.8231 124.687-29.5603 124.687-35.1837C124.687-40.8071 119.956-45.5442 114.535-45.5442L26.266-45.5442C21.0386-45.5442 16.084-40.8071 16.084-35.1837C16.084-29.5603 21.0386-24.8231 26.266-24.8231Z" data-clipstroke-keyframes="0 8 0 0.67898107 0.18748167 0 1 0.86739093 0.0013505238 0 1 0.36522442 0.49913108"/>
  </g>
  <g id="Bold-L" transform="matrix(1 0 0 1 2270.6 1556)">
   <path d="M24.406-26.7372L114.383-26.7372C118.82-26.7372 122.667-30.598 122.667-35.1761C122.667-39.7541 118.82-43.6149 114.383-43.6149L24.406-43.6149C20.0776-43.6149 16.084-39.7541 16.084-35.1761C16.084-30.598 20.0776-26.7372 24.406-26.7372Z" data-clipstroke-keyframes="0 8 0 0.6888743 0.19795226 0 1 0.8875955 0.0010636321 0 1 0.38591155 0.4991144"/>
  </g>
  <g id="Semibold-L" transform="matrix(1 0 0 1 1974.59 1556)">
   <path d="M23.1237-28.0567L114.279-28.0567C118.037-28.0567 121.275-31.3135 121.275-35.1708C121.275-39.0281 118.037-42.2849 114.279-42.2849L23.1237-42.2849C19.4151-42.2849 16.084-39.0281 16.084-35.1708C16.084-31.3135 19.4151-28.0567 23.1237-28.0567Z" data-clipstroke-keyframes="0 8 0 0.696116 0.20561671 0 1 0.90238017 0.0008454407 0 1 0.40106103 0.49912074"/>
  </g>
  <g id="Medium-L" transform="matrix(1 0 0 1 1678.4 1556)">
   <path d="M22.1515-29.0573L114.199-29.0573C117.443-29.0573 120.219-31.8559 120.219-35.1668C120.219-38.4777 117.443-41.2764 114.199-41.2764L22.1515-41.2764C18.9127-41.2764 16.084-38.4777 16.084-35.1668C16.084-31.8559 18.9127-29.0573 22.1515-29.0573Z" data-clipstroke-keyframes="0 8 0 0.7023443 0.21220338 0 1 0.91509765 0.00066959806 0 1 0.41407084 0.49914503"/>
  </g>
  <g id="Regular-L" transform="matrix(1 0 0 1 1382.38 1556)">
   <path d="M20.8833-30.3623L114.095-30.3623C116.669-30.3623 118.842-32.5635 118.842-35.1616C118.842-37.7598 116.669-39.9609 114.095-39.9609L20.8833-39.9609C18.2575-39.9609 16.084-37.7598 16.084-35.1616C16.084-32.5635 18.2575-30.3623 20.8833-30.3623Z" data-clipstroke-keyframes="0 8 0 0.71010095 0.22041073 0 1 0.9309227 0.0004206312 0 1 0.4303057 0.49918166"/>
  </g>
  <g id="Light-L" transform="matrix(1 0 0 1 1086.48 1556)">
   <path d="M19.7-31.5265L113.637-31.5265C115.6-31.5265 117.22-33.1933 117.22-35.1425C117.22-37.0918 115.6-38.7586 113.637-38.7586L19.7-38.7586C17.704-38.7586 16.084-37.0918 16.084-35.1425C16.084-33.1933 17.704-31.5265 19.7-31.5265Z" data-clipstroke-keyframes="0 8 0 0.7177799 0.22838083 0 1 0.94660366 0.0004358413 0 1 0.44586563 0.49921557"/>
  </g>
  <g id="Thin-L" transform="matrix(1 0 0 1 790.843 1556)">
   <path d="M18.135-33.0663L113.032-33.0663C114.186-33.0663 115.074-34.0263 115.074-35.1173C115.074-36.2083 114.186-37.1683 113.032-37.1683L18.135-37.1683C16.972-37.1683 16.084-36.2083 16.084-35.1173C16.084-34.0263 16.972-33.0663 18.135-33.0663Z" data-clipstroke-keyframes="0 8 0 0.7286092 0.23962075 0 1 0.96871823 0.00045729152 0 1 0.4678092 0.49944502"/>
  </g>
  <g id="Ultralight-L" transform="matrix(1 0 0 1 494.681 1556)">
   <path d="M17.3334-33.8549L112.721-33.8549C113.462-33.8549 113.975-34.4529 113.975-35.1044C113.975-35.7558 113.462-36.3538 112.721-36.3538L17.3334-36.3538C16.5971-36.3538 16.084-35.7558 16.084-35.1044C16.084-34.4529 16.5971-33.8549 17.3334-33.8549Z" data-clipstroke-keyframes="0 8 0 0.7351746 0.24644557 0 1 0.9821348 0.000470316 0 1 0.48113325 0.49967515"/>
  </g>
  <g id="Black-M" transform="matrix(1 0 0 1 2877.67 1126)">
   <path d="M22.6638-24.7673L88.8014-24.7673C94.2302-24.7673 98.9988-29.5357 98.9988-35.1986C98.9988-40.8616 94.2302-45.6299 88.8014-45.6299L22.6638-45.6299C17.515-45.6299 12.4609-40.8616 12.4609-35.1986C12.4609-29.5357 17.515-24.7673 22.6638-24.7673Z" data-clipstroke-keyframes="0 8 0 0.66441184 0.17200479 0 1 0.8376197 0.0018324376 0 1 0.3345999 0.49905673"/>
  </g>
  <g id="Heavy-M" transform="matrix(1 0 0 1 2581.67 1126)">
   <path d="M21.2926-26.1899L88.767-26.1899C93.4672-26.1899 97.5822-30.3073 97.5822-35.1961C97.5822-40.0849 93.4672-44.2022 88.767-44.2022L21.2926-44.2022C16.7941-44.2022 12.4609-40.0849 12.4609-35.1961C12.4609-30.3073 16.7941-26.1899 21.2926-26.1899Z" data-clipstroke-keyframes="0 8 0 0.6728583 0.1809797 0 1 0.8548825 0.0015545714 0 1 0.35235754 0.49910787"/>
  </g>
  <g id="Bold-M" transform="matrix(1 0 0 1 2285.75 1126)">
   <path d="M19.7586-27.7813L88.7285-27.7813C92.6136-27.7813 95.9976-31.1704 95.9976-35.1932C95.9976-39.216 92.6136-42.6051 88.7285-42.6051L19.7586-42.6051C15.9876-42.6051 12.4609-39.216 12.4609-35.1932C12.4609-31.1704 15.9876-27.7813 19.7586-27.7813Z" data-clipstroke-keyframes="0 8 0 0.6829569 0.19171038 0 1 0.8755112 0.0012041593 0 1 0.3736036 0.49915606"/>
  </g>
  <g id="Semibold-M" transform="matrix(1 0 0 1 1989.58 1126)">
   <path d="M18.7012-28.8784L88.7019-28.8784C92.0252-28.8784 94.9051-31.7654 94.9051-35.1912C94.9051-38.617 92.0252-41.5041 88.7019-41.5041L18.7012-41.5041C15.4317-41.5041 12.4609-38.617 12.4609-35.1912C12.4609-31.7654 15.4317-28.8784 18.7012-28.8784Z" data-clipstroke-keyframes="0 8 0 0.69035685 0.19957381 0 1 0.89062095 0.0009359043 0 1 0.38918194 0.49918312"/>
  </g>
  <g id="Medium-M" transform="matrix(1 0 0 1 1693.29 1126)">
   <path d="M17.8993-29.7102L88.6818-29.7102C91.579-29.7102 94.0768-32.2166 94.0768-35.1897C94.0768-38.1629 91.579-40.6692 88.6818-40.6692L17.8993-40.6692C15.0101-40.6692 12.4609-38.1629 12.4609-35.1897C12.4609-32.2166 15.0101-29.7102 17.8993-29.7102Z" data-clipstroke-keyframes="0 8 0 0.6962261 0.20581089 0 1 0.90260154 0.0007167647 0 1 0.40154335 0.49919996"/>
  </g>
  <g id="Regular-M" transform="matrix(1 0 0 1 1397.12 1126)">
   <path d="M16.8535-30.7953L88.6556-30.7953C90.997-30.7953 92.9963-32.8051 92.9963-35.1878C92.9963-37.5705 90.997-39.5803 88.6556-39.5803L16.8535-39.5803C14.4602-39.5803 12.4609-37.5705 12.4609-35.1878C12.4609-32.8051 14.4602-30.7953 16.8535-30.7953Z" data-clipstroke-keyframes="0 8 0 0.7047103 0.21481572 0 1 0.91991484 0.00040995367 0 1 0.41938257 0.49922734"/>
  </g>
  <g id="Light-M" transform="matrix(1 0 0 1 1101.13 1126)">
   <path d="M15.7926-31.839L88.2449-31.839C90.0388-31.839 91.5419-33.3698 91.5419-35.1707C91.5419-36.9716 90.0388-38.5023 88.2449-38.5023L15.7926-38.5023C13.964-38.5023 12.4609-36.9716 12.4609-35.1707C12.4609-33.3698 13.964-31.839 15.7926-31.839Z" data-clipstroke-keyframes="0 8 0 0.71328837 0.22371902 0 1 0.93743163 0.0004269447 0 1 0.4367644 0.49918205"/>
  </g>
  <g id="Thin-M" transform="matrix(1 0 0 1 805.383 1126)">
   <path d="M14.3895-33.2195L87.7018-33.2195C88.7715-33.2195 89.6183-34.1166 89.6183-35.148C89.6183-36.1795 88.7715-37.0766 87.7018-37.0766L14.3895-37.0766C13.3077-37.0766 12.4609-36.1795 12.4609-35.148C12.4609-34.1166 13.3077-33.2195 14.3895-33.2195Z" data-clipstroke-keyframes="0 8 0 0.7254951 0.2363886 0 1 0.96235895 0.0004511233 0 1 0.46149912 0.49935842"/>
  </g>
  <g id="Ultralight-M" transform="matrix(1 0 0 1 509.164 1126)">
   <path d="M13.6708-33.9266L87.4236-33.9266C88.1224-33.9266 88.633-34.4991 88.633-35.1365C88.633-35.7738 88.1224-36.3463 87.4236-36.3463L13.6708-36.3463C12.9716-36.3463 12.4609-35.7738 12.4609-35.1365C12.4609-34.4991 12.9716-33.9266 13.6708-33.9266Z" data-clipstroke-keyframes="0 8 0 0.733014 0.24420074 0 1 0.9777199 0.00046603195 0 1 0.4767507 0.49959528"/>
  </g>
  <g id="Black-S" transform="matrix(1 0 0 1 2889.55 696)">
   <path d="M18.1152-26.6602L69.5801-26.6602C74.0234-26.6602 77.9297-30.5664 77.9297-35.2051C77.9297-39.8438 74.0234-43.75 69.5801-43.75L18.1152-43.75C13.916-43.75 9.76562-39.8438 9.76562-35.2051C9.76562-30.5664 13.916-26.6602 18.1152-26.6602Z" data-clipstroke-keyframes="0 8 0 0.6617357 0.16914804 0 1 0.8321479 0.0019368097 0 1 0.32893485 0.49899963"/>
  </g>
  <g id="Heavy-S" transform="matrix(1 0 0 1 2593.35 696)">
   <path d="M17.078-27.7435L69.6031-27.7435C73.4933-27.7435 76.904-31.1542 76.904-35.2051C76.904-39.256 73.4933-42.6667 69.6031-42.6667L17.078-42.6667C13.3628-42.6667 9.76562-39.256 9.76562-35.2051C9.76562-31.1542 13.3628-27.7435 17.078-27.7435Z" data-clipstroke-keyframes="0 8 0 0.6697313 0.17767341 0 1 0.848493 0.0016345194 0 1 0.3458337 0.49912986"/>
  </g>
  <g id="Bold-S" transform="matrix(1 0 0 1 2297.22 696)">
   <path d="M15.918-28.9551L69.6289-28.9551C72.9004-28.9551 75.7568-31.8115 75.7568-35.2051C75.7568-38.5986 72.9004-41.4551 69.6289-41.4551L15.918-41.4551C12.7441-41.4551 9.76562-38.5986 9.76562-35.2051C9.76562-31.8115 12.7441-28.9551 15.918-28.9551Z" data-clipstroke-keyframes="0 8 0 0.67924774 0.18782067 0 1 0.86793536 0.001254866 0 1 0.36596328 0.49923757"/>
  </g>
  <g id="Semibold-S" transform="matrix(1 0 0 1 2000.9 696)">
   <path d="M15.1182-29.7904L69.6467-29.7904C72.4916-29.7904 74.9659-32.2647 74.9659-35.2051C74.9659-38.1454 72.4916-40.6197 69.6467-40.6197L15.1182-40.6197C12.3176-40.6197 9.76562-38.1454 9.76562-35.2051C9.76562-32.2647 12.3176-29.7904 15.1182-29.7904Z" data-clipstroke-keyframes="0 8 0 0.6861931 0.19522685 0 1 0.8821179 0.0009652625 0 1 0.38066527 0.49928626"/>
  </g>
  <g id="Medium-S" transform="matrix(1 0 0 1 1704.49 696)">
   <path d="M14.5117-30.4238L69.6602-30.4238C72.1816-30.4238 74.3662-32.6084 74.3662-35.2051C74.3662-37.8018 72.1816-39.9863 69.6602-39.9863L14.5117-39.9863C11.9941-39.9863 9.76562-37.8018 9.76562-35.2051C9.76562-32.6084 11.9941-30.4238 14.5117-30.4238Z" data-clipstroke-keyframes="0 8 0 0.6916848 0.20108311 0 1 0.89332813 0.00072933227 0 1 0.39229608 0.49930814"/>
  </g>
  <g id="Regular-S" transform="matrix(1 0 0 1 1408.17 696)">
   <path d="M13.7207-31.25L69.6777-31.25C71.7773-31.25 73.584-33.0566 73.584-35.2051C73.584-37.3535 71.7773-39.1602 69.6777-39.1602L13.7207-39.1602C11.5723-39.1602 9.76562-37.3535 9.76562-35.2051C9.76562-33.0566 11.5723-31.25 13.7207-31.25Z" data-clipstroke-keyframes="0 8 0 0.69967616 0.20959066 0 1 0.90963495 0.00039998218 0 1 0.40918174 0.49932528"/>
  </g>
  <g id="Light-S" transform="matrix(1 0 0 1 1112.1 696)">
   <path d="M12.7822-32.1733L69.3145-32.1733C70.9297-32.1733 72.2974-33.5561 72.2974-35.1899C72.2974-36.8237 70.9297-38.2066 69.3145-38.2066L12.7822-38.2066C11.1333-38.2066 9.76562-36.8237 9.76562-35.1899C9.76562-33.5561 11.1333-32.1733 12.7822-32.1733Z" data-clipstroke-keyframes="0 8 0 0.7090373 0.21930678 0 1 0.92875075 0.0004185244 0 1 0.42815045 0.499186"/>
  </g>
  <g id="Thin-S" transform="matrix(1 0 0 1 816.242 696)">
   <path d="M11.541-33.3945L68.834-33.3945C69.8086-33.3945 70.5957-34.2168 70.5957-35.1699C70.5957-36.1231 69.8086-36.9453 68.834-36.9453L11.541-36.9453C10.5527-36.9453 9.76562-36.1231 9.76562-35.1699C9.76562-34.2168 10.5527-33.3945 11.541-33.3945Z" data-clipstroke-keyframes="0 8 0 0.72246903 0.23324777 0 1 0.9561793 0.00044512935 0 1 0.45536733 0.49928993"/>
  </g>
  <g id="Ultralight-S" transform="matrix(1 0 0 1 519.966 696)">
   <path d="M10.9053-34.02L68.5879-34.02C69.2344-34.02 69.7242-34.5552 69.7242-35.1597C69.7242-35.7642 69.2344-36.2993 68.5879-36.2993L10.9053-36.2993C10.2554-36.2993 9.76562-35.7642 9.76562-35.1597C9.76562-34.5552 10.2554-34.02 10.9053-34.02Z" data-clipstroke-keyframes="0 8 0 0.72986376 0.2409229 0 1 0.9712803 0.00045977655 0 1 0.4703514 0.49948442"/>
  </g>
 </g>
</svg>
