<?xml version="1.0" encoding="UTF-8"?>
<!--Generator: Apple Native CoreSVG 341-->
<!DOCTYPE svg
PUBLIC "-//W3C//DTD SVG 1.1//EN"
       "http://www.w3.org/Graphics/SVG/1.1/DTD/svg11.dtd">
<svg version="1.1" xmlns="http://www.w3.org/2000/svg" xmlns:xlink="http://www.w3.org/1999/xlink" viewBox="0 0 3300 2200">
 <g id="Notes">
  <rect height="2200" id="artboard" style="fill:white;opacity:1" width="3300" x="0" y="0"/>
  <line style="fill:none;stroke:black;opacity:1;stroke-width:0.5;" x1="263" x2="3036" y1="292" y2="292"/>
  <text style="stroke:none;fill:black;font-family:sans-serif;font-size:13;font-weight:bold;" transform="matrix(1 0 0 1 263 322)">Weight/Scale Variations</text>
  <text style="stroke:none;fill:black;font-family:sans-serif;font-size:13;text-anchor:middle;" transform="matrix(1 0 0 1 559.711 322)">Ultralight</text>
  <text style="stroke:none;fill:black;font-family:sans-serif;font-size:13;text-anchor:middle;" transform="matrix(1 0 0 1 856.422 322)">Thin</text>
  <text style="stroke:none;fill:black;font-family:sans-serif;font-size:13;text-anchor:middle;" transform="matrix(1 0 0 1 1153.13 322)">Light</text>
  <text style="stroke:none;fill:black;font-family:sans-serif;font-size:13;text-anchor:middle;" transform="matrix(1 0 0 1 1449.84 322)">Regular</text>
  <text style="stroke:none;fill:black;font-family:sans-serif;font-size:13;text-anchor:middle;" transform="matrix(1 0 0 1 1746.56 322)">Medium</text>
  <text style="stroke:none;fill:black;font-family:sans-serif;font-size:13;text-anchor:middle;" transform="matrix(1 0 0 1 2043.27 322)">Semibold</text>
  <text style="stroke:none;fill:black;font-family:sans-serif;font-size:13;text-anchor:middle;" transform="matrix(1 0 0 1 2339.98 322)">Bold</text>
  <text style="stroke:none;fill:black;font-family:sans-serif;font-size:13;text-anchor:middle;" transform="matrix(1 0 0 1 2636.69 322)">Heavy</text>
  <text style="stroke:none;fill:black;font-family:sans-serif;font-size:13;text-anchor:middle;" transform="matrix(1 0 0 1 2933.4 322)">Black</text>
  <line style="fill:none;stroke:black;opacity:1;stroke-width:0.5;" x1="263" x2="3036" y1="1903" y2="1903"/>
  <g transform="matrix(0.2 0 0 0.2 263 1933)">
   <path d="m46.2402 4.15039c21.7773 0 39.4531-17.627 39.4531-39.4043s-17.6758-39.4043-39.4531-39.4043c-21.7285 0-39.4043 17.627-39.4043 39.4043s17.6758 39.4043 39.4043 39.4043Zm0-7.42188c-17.6758 0-31.9336-14.3066-31.9336-31.9824s14.2578-31.9824 31.9336-31.9824 31.9824 14.3066 31.9824 31.9824-14.3066 31.9824-31.9824 31.9824Zm3.61328-17.7734v-28.4668c0-2.24609-1.46484-3.75977-3.71094-3.75977-2.14844 0-3.61328 1.51367-3.61328 3.75977v28.4668c0 2.19727 1.46484 3.71094 3.61328 3.71094 2.24609 0 3.71094-1.51367 3.71094-3.71094Zm-17.8223-10.5957h28.418c2.19727 0 3.71094-1.46484 3.71094-3.61328 0-2.19727-1.51367-3.71094-3.71094-3.71094h-28.418c-2.24609 0-3.75977 1.51367-3.75977 3.71094 0 2.14844 1.51367 3.61328 3.75977 3.61328Z"/>
  </g>
  <g transform="matrix(0.2 0 0 0.2 281.506 1933)">
   <path d="m58.5449 14.5508c27.4902 0 49.8047-22.3145 49.8047-49.8047s-22.3145-49.8047-49.8047-49.8047-49.8047 22.3145-49.8047 49.8047 22.3145 49.8047 49.8047 49.8047Zm0-8.30078c-22.9492 0-41.5039-18.5547-41.5039-41.5039s18.5547-41.5039 41.5039-41.5039 41.5039 18.5547 41.5039 41.5039-18.5547 41.5039-41.5039 41.5039Zm4.05273-23.0957v-36.9141c0-2.49023-1.70898-4.19922-4.15039-4.19922-2.39258 0-4.05273 1.70898-4.05273 4.19922v36.9141c0 2.44141 1.66016 4.15039 4.05273 4.15039 2.44141 0 4.15039-1.66016 4.15039-4.15039Zm-22.5586-14.4043h36.9629c2.44141 0 4.15039-1.61133 4.15039-4.00391 0-2.44141-1.70898-4.15039-4.15039-4.15039h-36.9629c-2.49023 0-4.15039 1.70898-4.15039 4.15039 0 2.39258 1.66016 4.00391 4.15039 4.00391Z"/>
  </g>
  <g transform="matrix(0.2 0 0 0.2 304.924 1933)">
   <path d="m74.8535 28.3203c35.1074 0 63.623-28.4668 63.623-63.5742s-28.5156-63.623-63.623-63.623-63.5742 28.5156-63.5742 63.623 28.4668 63.5742 63.5742 63.5742Zm0-9.08203c-30.127 0-54.4922-24.3652-54.4922-54.4922s24.3652-54.4922 54.4922-54.4922 54.4922 24.3652 54.4922 54.4922-24.3652 54.4922-54.4922 54.4922Zm4.44336-30.3223v-48.4863c0-2.73438-1.85547-4.63867-4.54102-4.63867-2.58789 0-4.44336 1.9043-4.44336 4.63867v48.4863c0 2.68555 1.85547 4.58984 4.44336 4.58984 2.68555 0 4.54102-1.85547 4.54102-4.58984Zm-28.7109-19.7754h48.4863c2.68555 0 4.58984-1.80664 4.58984-4.39453 0-2.73438-1.85547-4.58984-4.58984-4.58984h-48.4863c-2.73438 0-4.58984 1.85547-4.58984 4.58984 0 2.58789 1.85547 4.39453 4.58984 4.39453Z"/>
  </g>
  <text style="stroke:none;fill:black;font-family:sans-serif;font-size:13;font-weight:bold;" transform="matrix(1 0 0 1 263 1953)">Design Variations</text>
  <text style="stroke:none;fill:black;font-family:sans-serif;font-size:13;" transform="matrix(1 0 0 1 263 1971)">Symbols are supported in up to nine weights and three scales.</text>
  <text style="stroke:none;fill:black;font-family:sans-serif;font-size:13;" transform="matrix(1 0 0 1 263 1989)">For optimal layout with text and other symbols, vertically align</text>
  <text style="stroke:none;fill:black;font-family:sans-serif;font-size:13;" transform="matrix(1 0 0 1 263 2007)">symbols with the adjacent text.</text>
  <line style="fill:none;stroke:#00AEEF;stroke-width:0.5;opacity:1.0;" x1="776" x2="776" y1="1919" y2="1933"/>
  <g transform="matrix(0.2 0 0 0.2 776 1933)">
   <path d="m16.5527 0.78125c2.58789 0 3.85742-0.976562 4.78516-3.71094l20.5566-57.5195h0.244141l20.6055 57.5195c0.927734 2.73438 2.19727 3.71094 4.73633 3.71094 2.58789 0 4.24805-1.5625 4.24805-4.00391 0-0.830078-0.146484-1.61133-0.537109-2.63672l-22.9004-60.9863c-1.12305-2.97852-3.125-4.49219-6.25-4.49219-3.02734 0-5.07812 1.46484-6.15234 4.44336l-22.9004 61.084c-0.390625 1.02539-0.537109 1.80664-0.537109 2.63672 0 2.44141 1.5625 3.95508 4.10156 3.95508Zm10.2051-20.9473h30.6641c2.00195 0 3.66211-1.66016 3.66211-3.66211 0-2.05078-1.66016-3.66211-3.66211-3.66211h-30.6641c-2.00195 0-3.66211 1.61133-3.66211 3.66211 0 2.00195 1.66016 3.66211 3.66211 3.66211Z"/>
  </g>
  <line style="fill:none;stroke:#00AEEF;stroke-width:0.5;opacity:1.0;" x1="792.836" x2="792.836" y1="1919" y2="1933"/>
  <text style="stroke:none;fill:black;font-family:sans-serif;font-size:13;font-weight:bold;" transform="matrix(1 0 0 1 776 1953)">Margins</text>
  <text style="stroke:none;fill:black;font-family:sans-serif;font-size:13;" transform="matrix(1 0 0 1 776 1971)">Leading and trailing margins on the left and right side of each symbol</text>
  <text style="stroke:none;fill:black;font-family:sans-serif;font-size:13;" transform="matrix(1 0 0 1 776 1989)">can be adjusted by modifying the x-location of the margin guidelines.</text>
  <text style="stroke:none;fill:black;font-family:sans-serif;font-size:13;" transform="matrix(1 0 0 1 776 2007)">Modifications are automatically applied proportionally to all</text>
  <text style="stroke:none;fill:black;font-family:sans-serif;font-size:13;" transform="matrix(1 0 0 1 776 2025)">scales and weights.</text>
  <g transform="matrix(0.2 0 0 0.2 1289 1933)">
   <path d="m14.209 13.1348 7.86133 7.86133c4.29688 4.39453 9.32617 4.10156 13.8672-1.02539l60.6934-68.2129-4.88281-4.88281-60.2539 67.6758c-1.80664 1.95312-3.4668 2.44141-5.81055 0.0976562l-5.17578-5.12695c-2.29492-2.29492-1.80664-3.95508 0.195312-5.81055l67.4805-62.1582-4.88281-4.83398-68.0664 62.5977c-4.98047 4.58984-5.32227 9.47266-1.02539 13.8184Zm44.873-97.4609c-2.05078 2.00195-2.24609 4.88281-1.07422 6.78711 1.12305 1.80664 3.4668 3.02734 6.5918 2.24609 5.85938-1.66016 12.5977-2.39258 18.8965 0.927734l-2.68555 7.12891c-1.61133 4.00391-0.732422 6.88477 1.70898 9.42383l10.2539 10.3027c2.34375 2.39258 4.54102 2.44141 7.08008 1.95312l4.44336-0.732422 2.58789 2.53906-0.195312 2.24609c-0.0976562 2.29492 0.537109 4.29688 2.7832 6.49414l3.36914 3.32031c2.29492 2.29492 5.51758 2.49023 7.8125 0.195312l12.9883-13.0371c2.29492-2.34375 2.14844-5.37109-0.195312-7.66602l-3.41797-3.41797c-2.19727-2.19727-4.05273-3.02734-6.34766-2.88086l-2.34375 0.244141-2.44141-2.44141 1.02539-4.6875c0.634766-2.73438-0.244141-4.98047-2.88086-7.61719l-11.2793-11.1816c-12.9395-12.8418-35.5957-11.0352-46.6797-0.146484Zm7.08008 2.05078c8.78906-6.39648 25.9766-5.66406 33.6914 1.95312l12.3047 12.207c1.02539 1.02539 1.2207 1.80664 0.927734 3.32031l-1.46484 6.64062 6.73828 6.68945 4.39453-0.244141c1.12305-0.0488281 1.51367 0.0488281 2.34375 0.878906l2.53906 2.49023-10.8398 10.8398-2.49023-2.49023c-0.830078-0.878906-0.976562-1.2207-0.927734-2.39258l0.292969-4.3457-6.68945-6.73828-6.83594 1.17188c-1.41602 0.292969-2.05078 0.195312-3.17383-0.878906l-8.93555-8.88672c-1.07422-1.02539-1.17188-1.70898-0.488281-3.36914l4.58984-11.4746c-6.10352-6.34766-17.041-7.51953-25.5859-4.58984-0.683594 0.244141-0.927734-0.390625-0.390625-0.78125Z"/>
  </g>
  <text style="stroke:none;fill:black;font-family:sans-serif;font-size:13;font-weight:bold;" transform="matrix(1 0 0 1 1289 1953)">Exporting</text>
  <text style="stroke:none;fill:black;font-family:sans-serif;font-size:13;" transform="matrix(1 0 0 1 1289 1971)">Symbols should be outlined when exporting to ensure the</text>
  <text style="stroke:none;fill:black;font-family:sans-serif;font-size:13;" transform="matrix(1 0 0 1 1289 1989)">design is preserved when submitting to Xcode.</text>
  <text id="template-version" style="stroke:none;fill:black;font-family:sans-serif;font-size:13;text-anchor:end;" transform="matrix(1 0 0 1 3036 1933)">Template v.2.0</text>
  <text style="stroke:none;fill:black;font-family:sans-serif;font-size:13;text-anchor:end;" transform="matrix(1 0 0 1 3036 1951)">Requires Xcode 12 or greater</text>
  <text id="descriptive-name" style="stroke:none;fill:black;font-family:sans-serif;font-size:13;text-anchor:end;" transform="matrix(1 0 0 1 3036 1969)">Generated from textformat.size</text>
  <text style="stroke:none;fill:black;font-family:sans-serif;font-size:13;text-anchor:end;" transform="matrix(1 0 0 1 3036 1987)">Typeset at 100.0 points</text>
  <text style="stroke:none;fill:black;font-family:sans-serif;font-size:13;" transform="matrix(1 0 0 1 263 726)">Small</text>
  <text style="stroke:none;fill:black;font-family:sans-serif;font-size:13;" transform="matrix(1 0 0 1 263 1156)">Medium</text>
  <text style="stroke:none;fill:black;font-family:sans-serif;font-size:13;" transform="matrix(1 0 0 1 263 1586)">Large</text>
 </g>
 <g id="Guides">
  <g id="H-reference" style="fill:#27AAE1;stroke:none;" transform="matrix(1 0 0 1 339 696)">
   <path d="M0.993654 0L3.63775 0L29.3281-67.1323L30.0303-67.1323L30.0303-70.459L28.1226-70.459ZM11.6885-24.4799L46.9815-24.4799L46.2315-26.7285L12.4385-26.7285ZM55.1196 0L57.7637 0L30.6382-70.459L29.4326-70.459L29.4326-67.1323Z"/>
  </g>
  <line id="Baseline-S" style="fill:none;stroke:#27AAE1;opacity:1;stroke-width:0.5;" x1="263" x2="3036" y1="696" y2="696"/>
  <line id="Capline-S" style="fill:none;stroke:#27AAE1;opacity:1;stroke-width:0.5;" x1="263" x2="3036" y1="625.541" y2="625.541"/>
  <g id="H-reference" style="fill:#27AAE1;stroke:none;" transform="matrix(1 0 0 1 339 1126)">
   <path d="M0.993654 0L3.63775 0L29.3281-67.1323L30.0303-67.1323L30.0303-70.459L28.1226-70.459ZM11.6885-24.4799L46.9815-24.4799L46.2315-26.7285L12.4385-26.7285ZM55.1196 0L57.7637 0L30.6382-70.459L29.4326-70.459L29.4326-67.1323Z"/>
  </g>
  <line id="Baseline-M" style="fill:none;stroke:#27AAE1;opacity:1;stroke-width:0.5;" x1="263" x2="3036" y1="1126" y2="1126"/>
  <line id="Capline-M" style="fill:none;stroke:#27AAE1;opacity:1;stroke-width:0.5;" x1="263" x2="3036" y1="1055.54" y2="1055.54"/>
  <g id="H-reference" style="fill:#27AAE1;stroke:none;" transform="matrix(1 0 0 1 339 1556)">
   <path d="M0.993654 0L3.63775 0L29.3281-67.1323L30.0303-67.1323L30.0303-70.459L28.1226-70.459ZM11.6885-24.4799L46.9815-24.4799L46.2315-26.7285L12.4385-26.7285ZM55.1196 0L57.7637 0L30.6382-70.459L29.4326-70.459L29.4326-67.1323Z"/>
  </g>
  <line id="Baseline-L" style="fill:none;stroke:#27AAE1;opacity:1;stroke-width:0.5;" x1="263" x2="3036" y1="1556" y2="1556"/>
  <line id="Capline-L" style="fill:none;stroke:#27AAE1;opacity:1;stroke-width:0.5;" x1="263" x2="3036" y1="1485.54" y2="1485.54"/>
  <line id="right-margin" style="fill:none;stroke:#00AEEF;stroke-width:0.5;opacity:1.0;" x1="1517.91" x2="1517.91" y1="1030.79" y2="1150.12"/>
  <line id="left-margin" style="fill:none;stroke:#00AEEF;stroke-width:0.5;opacity:1.0;" x1="1381.77" x2="1381.77" y1="1030.79" y2="1150.12"/>
 </g>
 <g id="Symbols">
  <g id="Black-L" transform="matrix(1 0 0 1 2831.31 1556)">
   <path d="M109.846 14.5022C117.204 14.5022 121.271 11.2012 123.208 3.48883L142.332-61.7307L142.848-61.7307L161.352 3.48883C163.287 11.2012 167.356 14.5022 174.712 14.5022C182.829 14.5022 188.099 9.62646 188.099 2.1934C188.099-0.810338 187.684-3.2092 186.66-6.18059L164.521-69.8611C161.043-80.0907 154.052-84.926 142.513-84.926C131.617-84.926 124.764-80.0335 121.247-69.8611L98.4456-4.99164C97.559-2.31228 97.0865 0.24098 97.0865 2.56466C97.0865 9.93931 101.962 14.5022 109.846 14.5022ZM119.294-6.88297L165.306-6.88297C170.585-6.88297 174.839-11.1371 174.839-16.4166C174.839-21.7157 170.585-25.9502 165.306-25.9502L119.294-25.9502C113.995-25.9502 109.741-21.7157 109.741-16.4166C109.741-11.1371 113.995-6.88297 119.294-6.88297ZM26.7014 14.5022C32.2741 14.5022 35.4872 11.5308 37.3408 4.46901L39.339-2.2184L63.3307-2.2184L65.329 4.76105C67.049 11.6893 70.2609 14.5022 76.3408 14.5022C82.3697 14.5022 86.7442 10.3482 86.7442 4.36254C86.7442 1.99603 86.2885-0.0564396 85.3435-2.79421L68.0809-50.2945C64.8951-59.0443 59.8112-62.8663 51.1007-62.8663C42.9366-62.8663 37.8747-58.9095 34.8045-50.2945L17.6391-2.79421C16.7317-0.273293 16.084 2.44246 16.084 4.36254C16.084 10.7194 20.086 14.5022 26.7014 14.5022ZM43.3228-17.7409L50.5796-43.866L51.4477-43.866L59.0758-17.7409Z"/>
  </g>
  <g id="Heavy-L" transform="matrix(1 0 0 1 2538.03 1556)">
   <path d="M104.624 13.7308C110.969 13.7308 114.437 10.9283 116.183 4.27038L137.204-63.3464L137.684-63.3464L158.25 4.27038C159.99 10.9283 163.465 13.7308 169.803 13.7308C176.728 13.7308 181.234 9.55875 181.234 3.1856C181.234 0.657743 180.87-1.3937 179.978-3.95867L155.969-71.4119C152.997-80.0693 147.081-84.1866 137.395-84.1866C128.2-84.1866 122.403-80.0303 119.412-71.4119L94.8873-3.03603C94.1149-0.694181 93.7063 1.46095 93.7063 3.48352C93.7063 9.81205 97.8784 13.7308 104.624 13.7308ZM114.946-9.12752L159.542-9.12752C164.151-9.12752 167.862-12.8389 167.862-17.4478C167.862-22.0813 164.151-25.7681 159.542-25.7681L114.946-25.7681C110.313-25.7681 106.601-22.0813 106.601-17.4478C106.601-12.8389 110.313-9.12752 114.946-9.12752ZM25.3464 13.7308C30.184 13.7308 33.0193 11.1659 34.6446 5.09065L37.4878-3.8282L61.7125-3.8282L64.5557 5.31376C66.1075 11.3155 68.9372 13.7308 74.1575 13.7308C79.4485 13.7308 83.266 10.1244 83.266 4.9285C83.266 2.83995 82.8417 1.0103 82.0246-1.37617L64.1088-50.1902C61.3609-57.7074 56.8869-61.065 49.4189-61.065C42.3826-61.065 37.9445-57.6283 35.2801-50.1902L17.429-1.37617C16.6264 0.816068 16.084 3.16674 16.084 4.9285C16.084 10.4223 19.598 13.7308 25.3464 13.7308ZM41.1588-17.5082L48.8637-43.8208L49.8458-43.8208L57.8486-17.5082Z"/>
  </g>
  <g id="Bold-L" transform="matrix(1 0 0 1 2245.29 1556)">
   <path d="M98.4675 12.8599C103.582 12.8599 106.328 10.6499 107.828 5.27582L131.259-65.5232L131.693-65.5232L154.855 5.27582C156.342 10.6499 159.101 12.8599 164.202 12.8599C169.696 12.8599 173.286 9.53386 173.286 4.43738C173.286 2.47131 172.984 0.835257 172.254-1.23758L145.939-73.318C143.583-80.0908 138.951-83.3542 131.458-83.3542C124.287-83.3542 119.751-80.0749 117.391-73.318L90.7302-0.61553C90.0961 1.31129 89.7645 2.99697 89.7645 4.65058C89.7645 9.71787 93.0906 12.8599 98.4675 12.8599ZM109.761-11.8793L152.985-11.8793C156.771-11.8793 159.814-14.9221 159.814-18.7085C159.814-22.5197 156.771-25.5378 152.985-25.5378L109.761-25.5378C105.95-25.5378 102.907-22.5197 102.907-18.7085C102.907-14.9221 105.95-11.8793 109.761-11.8793ZM23.6861 12.8599C27.6318 12.8599 29.991 10.7871 31.3394 5.9038L35.2724-5.81101L59.9157-5.81101L63.8487 6.04982C65.1855 10.9215 67.5315 12.8599 71.7285 12.8599C76.0976 12.8599 79.2385 9.92229 79.2385 5.68741C79.2385 3.94459 78.8601 2.399 78.1969 0.442979L59.355-50.2608C57.145-56.2788 53.4391-59.0527 47.4706-59.0527C41.803-59.0527 38.1483-56.2539 35.9835-50.2608L17.1752 0.442979C16.5032 2.23542 16.084 4.14023 16.084 5.68741C16.084 10.1355 18.9985 12.8599 23.6861 12.8599ZM38.5293-17.2237L46.9068-44.0352L47.9601-44.0352L56.5508-17.2237Z"/>
  </g>
  <g id="Semibold-L" transform="matrix(1 0 0 1 1951.32 1556)">
   <path d="M94.223 12.2595C98.4889 12.2595 100.737 10.4579 102.068 5.96896L127.161-67.0239L127.564-67.0239L152.515 5.96896C153.827 10.4579 156.093 12.2595 160.341 12.2595C164.848 12.2595 167.808 9.51671 167.808 5.30034C167.808 3.72157 167.548 2.37189 166.929 0.638318L139.024-74.6321C137.093-80.1057 133.347-82.7803 127.365-82.7803C121.589-82.7803 117.923-80.1056 115.998-74.6321L87.8643 1.05315C87.3257 2.69385 87.0471 4.05589 87.0471 5.45515C87.0471 9.65294 89.7899 12.2595 94.223 12.2595ZM106.186-13.7763L148.464-13.7763C151.684-13.7763 154.266-16.3582 154.266-19.5776C154.266-22.822 151.684-25.379 148.464-25.379L106.186-25.379C102.942-25.379 100.36-22.822 100.36-19.5776C100.36-16.3582 102.942-13.7763 106.186-13.7763ZM22.5415 12.2595C25.8723 12.2595 27.9032 10.5259 29.0609 6.46439L33.7451-7.17794L58.677-7.17794L63.3613 6.55725C64.5499 10.6498 66.5624 12.2595 70.0539 12.2595C73.7876 12.2595 76.462 9.78295 76.462 6.2106C76.462 4.70613 76.1153 3.35637 75.5581 1.69709L56.0777-50.3095C54.2387-55.2939 51.0622-57.6654 46.1275-57.6654C41.4034-57.6654 38.2888-55.3064 36.4684-50.3095L17.0003 1.69709C16.4183 3.21392 16.084 4.81135 16.084 6.2106C16.084 9.93776 18.5852 12.2595 22.5415 12.2595ZM36.7166-17.0277L45.5577-44.183L46.6602-44.183L55.6561-17.0277Z"/>
  </g>
  <g id="Medium-L" transform="matrix(1 0 0 1 1656.69 1556)">
   <path d="M91.0047 11.8043C94.6275 11.8043 96.4973 10.3123 97.7001 6.49453L124.054-68.1617L124.432-68.1617L150.74 6.49453C151.92 10.3123 153.813 11.8043 157.413 11.8043C161.173 11.8043 163.654 9.5037 163.654 5.95468C163.654 4.66957 163.426 3.53703 162.891 2.0607L133.782-75.6284C132.171-80.117 129.097-82.3451 124.262-82.3451C119.543-82.3451 116.537-80.1289 114.941-75.6284L85.6912 2.31841C85.225 3.74217 84.9866 4.8588 84.9866 6.0652C84.9866 9.60371 87.2872 11.8043 91.0047 11.8043ZM103.476-15.2147L145.037-15.2147C147.826-15.2147 150.059-17.4471 150.059-20.2366C150.059-23.0512 147.826-25.2586 145.037-25.2586L103.476-25.2586C100.661-25.2586 98.4288-23.0512 98.4288-20.2366C98.4288-17.4471 100.661-15.2147 103.476-15.2147ZM21.6736 11.8043C24.5382 11.8043 26.3202 10.3279 27.3332 6.88945L32.5871-8.21441L57.7377-8.21441L62.9917 6.94201C64.068 10.4439 65.8275 11.8043 68.7842 11.8043C72.036 11.8043 74.3568 9.6773 74.3568 6.6073C74.3568 5.28355 74.034 4.08228 73.5572 2.64801L53.5928-50.3464C52.0349-54.5471 49.2599-56.6135 45.1091-56.6135C41.1004-56.6135 38.3953-54.588 36.8361-50.3464L16.8676 2.64801C16.3539 3.95585 16.084 5.32021 16.084 6.6073C16.084 9.78782 18.2718 11.8043 21.6736 11.8043ZM35.3421-16.879L44.5347-44.2951L45.6745-44.2951L54.9777-16.879Z"/>
  </g>
  <g id="Regular-L" transform="matrix(1 0 0 1 1362.68 1556)">
   <path d="M86.8068 11.2105C89.5909 11.2105 90.9679 10.1224 92.0031 7.18005L120.001-69.6459L120.347-69.6459L148.425 7.18005C149.433 10.1224 150.838 11.2105 153.594 11.2105C156.378 11.2105 158.235 9.48673 158.235 6.80816C158.235 5.90609 158.049 5.05677 157.624 3.91599L126.943-76.928C125.752-80.1317 123.554-81.7775 120.214-81.7775C116.875-81.7775 114.729-80.1593 113.563-76.928L82.8568 3.96875C82.4849 5.10954 82.299 5.90609 82.299 6.86093C82.299 9.53949 84.0227 11.2105 86.8068 11.2105ZM99.9404-17.0909L140.566-17.0909C142.795-17.0909 144.571-18.8674 144.571-21.0962C144.571-23.3501 142.795-25.1015 140.566-25.1015L99.9404-25.1015C97.6865-25.1015 95.91-23.3501 95.91-21.0962C95.91-18.8674 97.6865-17.0909 99.9404-17.0909ZM20.5416 11.2105C22.7981 11.2105 24.2554 10.0697 25.0796 7.44387L31.0766-9.56632L56.5126-9.56632L62.5096 7.44387C63.4394 10.1752 64.8691 11.2105 67.1281 11.2105C69.7513 11.2105 71.6108 9.53949 71.6108 7.12474C71.6108 6.03672 71.3193 5.02912 70.9474 3.88833L50.3515-50.3945C49.1605-53.5731 46.9091-55.2415 43.7808-55.2415C40.7052-55.2415 38.5343-53.651 37.3156-50.3945L16.6946 3.88833C16.2699 4.92359 16.084 5.98396 16.084 7.12474C16.084 9.59226 17.863 11.2105 20.5416 11.2105ZM33.5492-16.685L43.2004-44.4413L44.3889-44.4413L54.0928-16.685Z"/>
  </g>
  <g id="Light-L" transform="matrix(1 0 0 1 1066.93 1556)">
   <path d="M84.5548 11.1532C86.6518 11.1532 87.647 10.3133 88.4533 8.11523L118.512-72.2797L118.821-72.2797L148.96 8.11523C149.719 10.3133 150.761 11.1532 152.812 11.1532C154.909 11.1532 156.326 9.84935 156.326 7.81968C156.326 7.12754 156.179 6.46908 155.849 5.59549L123.641-78.1495C122.794-80.4561 121.187-81.7394 118.707-81.7394C116.226-81.7394 114.653-80.5029 113.792-78.1495L81.5972 5.62917C81.3017 6.50276 81.1539 7.12754 81.1539 7.85336C81.1539 9.88303 82.4577 11.1532 84.5548 11.1532ZM97.6501-18.8086L139.783-18.8086C141.497-18.8086 142.835-20.1461 142.835-21.8596C142.835-23.56 141.497-24.9106 139.783-24.9106L97.6501-24.9106C95.9497-24.9106 94.6122-23.56 94.6122-21.8596C94.6122-20.1461 95.9497-18.8086 97.6501-18.8086ZM19.511 11.1532C21.2712 11.1532 22.3469 10.2796 23.0184 8.28362L30.046-10.8641L56.6081-10.8641L63.6357 8.28362C64.3745 10.347 65.4035 11.1532 67.2235 11.1532C69.1597 11.1532 70.6374 9.88303 70.6374 8.02175C70.6374 7.18184 70.4223 6.42234 70.1268 5.54875L48.1376-51.7305C47.2901-54.0502 45.6495-55.2606 43.3037-55.2606C40.9915-55.2606 39.4313-54.0708 38.5371-51.7305L16.561 5.54875C16.2318 6.35499 16.084 7.14816 16.084 8.02175C16.084 9.91671 17.4813 11.1532 19.511 11.1532ZM32.0606-16.5133L42.9332-46.3307L43.7209-46.3307L54.6272-16.5133Z"/>
  </g>
  <g id="Thin-L" transform="matrix(1 0 0 1 771.479 1556)">
   <path d="M81.5762 11.0775C82.7645 11.0775 83.255 10.5657 83.7583 9.35208L116.543-75.763L116.801-75.763L149.667 9.35208C150.098 10.5657 150.66 11.0775 151.777 11.0775C152.965 11.0775 153.802 10.3289 153.802 9.1575C153.802 8.74302 153.705 8.33698 153.502 7.81677L119.275-79.7649C118.882-80.8852 118.057-81.6889 116.712-81.6889C115.368-81.6889 114.552-80.9572 114.095-79.7649L79.9312 7.82521C79.7367 8.34542 79.6394 8.74302 79.6394 9.16593C79.6394 10.3374 80.3879 11.0775 81.5762 11.0775ZM94.6211-21.0803L138.749-21.0803C139.781-21.0803 140.538-21.8373 140.538-22.8693C140.538-23.8377 139.781-24.6582 138.749-24.6582L94.6211-24.6582C93.6527-24.6582 92.8957-23.8377 92.8957-22.8693C92.8957-21.8373 93.6527-21.0803 94.6211-21.0803ZM18.1479 11.0775C19.2519 11.0775 19.8227 10.5573 20.2923 9.39426L28.6829-12.5806L56.7343-12.5806L65.1249 9.39426C65.6114 10.5741 66.1102 11.0775 67.3497 11.0775C68.3772 11.0775 69.3501 10.3374 69.3501 9.20811C69.3501 8.69635 69.236 8.265 69.0414 7.74479L45.2096-53.4974C44.8164-54.6813 43.9835-55.2858 42.6726-55.2858C41.3701-55.2858 40.6177-54.6261 40.1526-53.4974L16.3843 7.74479C16.1813 8.24812 16.084 8.68791 16.084 9.20811C16.084 10.3458 16.9765 11.0775 18.1479 11.0775ZM30.0917-16.2861L42.5798-48.8297L42.8374-48.8297L55.334-16.2861Z"/>
  </g>
  <g id="Ultralight-L" transform="matrix(1 0 0 1 475.414 1556)">
   <path d="M80.0506 11.0387C80.7735 11.0387 81.0054 10.695 81.3535 9.98559L115.535-77.5472L115.767-77.5472L150.029 9.98559C150.292 10.695 150.609 11.0387 151.247 11.0387C151.969 11.0387 152.509 10.5746 152.509 9.84272C152.509 9.57046 152.438 9.29371 152.3 8.9545L117.038-80.5924C116.878-81.105 116.454-81.663 115.691-81.663C114.928-81.663 114.5-81.1899 114.25-80.5924L79.078 8.95001C78.9351 9.28921 78.8636 9.57046 78.8636 9.83823C78.8636 10.5701 79.3278 11.0387 80.0506 11.0387ZM93.0697-22.2439L138.218-22.2439C138.901-22.2439 139.361-22.7035 139.361-23.3864C139.361-23.9799 138.901-24.5289 138.218-24.5289L93.0697-24.5289C92.4762-24.5289 92.0166-23.9799 92.0166-23.3864C92.0166-22.7035 92.4762-22.2439 93.0697-22.2439ZM17.4498 11.0387C18.2176 11.0387 18.5298 10.6995 18.896 9.96313L27.9848-13.4597L56.7989-13.4597L65.8877 9.96313C66.2449 10.6905 66.4722 11.0387 67.4144 11.0387C67.9764 11.0387 68.6908 10.5701 68.6908 9.81577C68.6908 9.47207 68.6283 9.20879 68.4854 8.86959L43.7098-54.4024C43.5494-55.0045 43.1302-55.2988 42.3494-55.2988C41.5641-55.2988 41.2253-54.9106 40.98-54.4024L16.2938 8.86959C16.1554 9.21778 16.084 9.47656 16.084 9.81577C16.084 10.5656 16.7179 11.0387 17.4498 11.0387ZM29.0833-16.1697L42.3988-50.1096L42.3849-50.1096L55.696-16.1697Z"/>
  </g>
  <g id="Black-M" transform="matrix(1 0 0 1 2851.48 1126)">
   <path d="M89.2845 3.95492C95.763 3.95492 99.3765 1.00267 101.01-5.77777L114.475-54.7293L114.902-54.7293L127.744-5.77777C129.378 1.00267 132.991 3.95492 139.47 3.95492C146.691 3.95492 151.369-0.370385 151.369-6.95208C151.369-9.65975 151.01-11.791 150.116-14.4061L134.363-60.8928C131.28-70.0477 125.021-74.3617 114.605-74.3617C104.818-74.3617 98.6786-69.9903 95.5438-60.8928L79.1574-13.2587C78.3827-10.929 77.9669-8.63202 77.9669-6.60401C77.9669-0.0794115 82.2922 3.95492 89.2845 3.95492ZM95.8489-11.572L132.916-11.572C137.513-11.572 141.216-15.2747 141.216-19.8715C141.216-24.474 137.513-28.171 132.916-28.171L95.8489-28.171C91.2463-28.171 87.5436-24.474 87.5436-19.8715C87.5436-15.2747 91.2463-11.572 95.8489-11.572ZM21.7116 3.95492C26.5935 3.95492 29.3558 1.33976 30.9674-4.89387L31.929-8.44674L50.4686-8.44674L51.4302-4.60839C52.8814 1.46493 55.644 3.95492 61.0338 3.95492C66.2458 3.95492 70.0618 0.320263 70.0618-4.92076C70.0618-6.95946 69.6921-8.70748 68.8603-11.0943L55.8589-47.1717C53.0609-54.8934 48.6807-58.1915 40.9706-58.1915C33.7797-58.1915 29.4047-54.7334 26.7212-47.1717L13.8282-11.0943C13.0481-8.88975 12.4609-6.50818 12.4609-4.92076C12.4609 0.668333 15.9292 3.95492 21.7116 3.95492ZM35.2221-21.8571L40.6247-42.2154L41.1449-42.2154L46.8955-21.8571Z"/>
  </g>
  <g id="Heavy-M" transform="matrix(1 0 0 1 2558.04 1126)">
   <path d="M84.3879 3.20614C89.9389 3.20614 93.0028 0.71832 94.4709-5.10002L109.6-56.0658L109.994-56.0658L124.663-5.10002C126.128 0.71832 129.194 3.20614 134.743 3.20614C140.861 3.20614 144.834-0.470027 144.834-6.07546C144.834-8.33728 144.521-10.1465 143.747-12.389L126.308-62.2961C123.688-69.9968 118.425-73.6425 109.741-73.6425C101.537-73.6425 96.3777-69.9555 93.7284-62.2961L75.7951-11.5001C75.125-9.47575 74.7682-7.5521 74.7682-5.79732C74.7682-0.235509 78.4443 3.20614 84.3879 3.20614ZM91.8096-13.6077L127.354-13.6077C131.343-13.6077 134.556-16.8204 134.556-20.8092C134.556-24.812 131.343-28.0106 127.354-28.0106L91.8096-28.0106C87.8067-28.0106 84.5939-24.812 84.5939-20.8092C84.5939-16.8204 87.8067-13.6077 91.8096-13.6077ZM20.4821 3.20614C24.6912 3.20614 27.1194 0.963641 28.5218-4.36365L30.2143-9.9007L48.8779-9.9007L50.5704-4.14554C51.8748 1.0837 54.3008 3.20614 58.8906 3.20614C63.4446 3.20614 66.7514 0.069842 66.7514-4.45024C66.7514-6.24011 66.4053-7.79319 65.6916-9.8612L52.1802-46.9464C49.7786-53.5425 45.9383-56.4289 39.3705-56.4289C33.2117-56.4289 29.3902-53.4422 27.0735-46.9464L13.6351-9.8612C12.9487-7.95688 12.4609-5.90755 12.4609-4.45024C12.4609 0.347981 15.4873 3.20614 20.4821 3.20614ZM33.244-21.6454L38.9719-41.9969L39.6405-41.9969L45.6466-21.6454Z"/>
  </g>
  <g id="Bold-M" transform="matrix(1 0 0 1 2264.99 1126)">
   <path d="M78.9104 2.36852C83.4239 2.36852 85.8728 0.400233 87.1558-4.34186L104.147-57.5609L104.505-57.5609L121.215-4.34186C122.493 0.400233 124.947 2.36852 129.456 2.36852C134.34 2.36852 137.524-0.581491 137.524-5.09483C137.524-6.85792 137.262-8.3069 136.623-10.1325L117.297-63.8659C115.196-69.9399 111.046-72.8378 104.3-72.8378C97.8677-72.8378 93.8037-69.9165 91.6977-63.8659L72.0339-9.53293C71.4808-7.85006 71.1899-6.34405 71.1899-4.89491C71.1899-0.410127 74.14 2.36852 78.9104 2.36852ZM87.291-15.8849L121.132-15.8849C124.441-15.8849 127.106-18.5495 127.106-21.8581C127.106-25.1902 124.441-27.8313 121.132-27.8313L87.291-27.8313C83.9589-27.8313 81.2943-25.1902 81.2943-21.8581C81.2943-18.5495 83.9589-15.8849 87.291-15.8849ZM19.1067 2.36852C22.5631 2.36852 24.6176 0.5429 25.7861-3.77052L28.2963-11.5272L47.0985-11.5272L49.6087-3.62778C50.7488 0.657241 52.7981 2.36852 56.4932 2.36852C60.3111 2.36852 63.0482-0.21029 63.0482-3.9239C63.0482-5.43542 62.7287-6.77043 62.147-8.48186L48.065-46.6944C46.1067-52.0313 42.8705-54.4572 37.5806-54.4572C32.5763-54.4572 29.3738-51.9977 27.4676-46.6944L13.4192-8.48186C12.8374-6.91332 12.4609-5.23565 12.4609-3.9239C12.4609-0.0103784 14.993 2.36852 19.1067 2.36852ZM31.0312-21.4086L37.123-41.7525L37.9577-41.7525L44.2495-21.4086Z"/>
  </g>
  <g id="Semibold-M" transform="matrix(1 0 0 1 1970.79 1126)">
   <path d="M75.1342 1.79107C78.9324 1.79107 80.9574 0.180946 82.1129-3.81919L100.387-58.5916L100.721-58.5916L118.839-3.81919C119.987 0.180946 122.019 1.79107 125.811 1.79107C129.845 1.79107 132.484-0.658333 132.484-4.41879C132.484-5.83805 132.257-7.0387 131.711-8.57693L111.084-64.9481C109.341-69.9007 105.959-72.2831 100.549-72.2831C95.3379-72.2831 92.0293-69.8897 90.2977-64.9481L69.441-8.17675C68.9685-6.72931 68.7231-5.51123 68.7231-4.2728C68.7231-0.530508 71.1725 1.79107 75.1342 1.79107ZM84.1759-17.4549L116.843-17.4549C119.683-17.4549 121.969-19.7416 121.969-22.5813C121.969-25.4509 119.683-27.7077 116.843-27.7077L84.1759-27.7077C81.3063-27.7077 79.0196-25.4509 79.0196-22.5813C79.0196-19.7416 81.3063-17.4549 84.1759-17.4549ZM18.1585 1.79107C21.096 1.79107 22.8928 0.252843 23.9001-3.36163L26.974-12.6484L45.8718-12.6484L48.9456-3.27084C49.9726 0.363241 51.7622 1.79107 54.8404 1.79107C58.1509 1.79107 60.4952-0.403411 60.4952-3.56105C60.4952-4.88066 60.194-6.06535 59.7033-7.53095L45.228-46.5207C43.5754-50.9895 40.7556-53.0978 36.3467-53.0978C32.1383-53.0978 29.3626-51.002 27.7392-46.5207L13.2703-7.53095C12.7607-6.1939 12.4609-4.77245 12.4609-3.56105C12.4609-0.257429 14.6522 1.79107 18.1585 1.79107ZM29.5057-21.2454L35.8485-41.584L36.7976-41.584L43.2863-21.2454Z"/>
  </g>
  <g id="Medium-M" transform="matrix(1 0 0 1 1675.99 1126)">
   <path d="M72.2709 1.35322C75.5268 1.35322 77.2304 0.0146731 78.2891-3.42288L97.5362-59.3731L97.8511-59.3731L117.037-3.42288C118.087 0.0146731 119.799 1.35322 123.047 1.35322C126.436 1.35322 128.663-0.716599 128.663-3.90618C128.663-5.06474 128.463-6.0771 127.987-7.39741L106.374-65.7687C104.902-69.871 102.102-71.8626 97.7042-71.8626C93.4197-71.8626 90.6838-69.8693 89.2362-65.7687L67.4749-7.14844C67.0635-5.87951 66.8527-4.87975 66.8527-3.80109C66.8527-0.621785 68.9225 1.35322 72.2709 1.35322ZM81.8139-18.6453L113.591-18.6453C116.075-18.6453 118.075-20.6455 118.075-23.1296C118.075-25.6486 116.075-27.6139 113.591-27.6139L81.8139-27.6139C79.295-27.6139 77.2948-25.6486 77.2948-23.1296C77.2948-20.6455 79.295-18.6453 81.8139-18.6453ZM17.4395 1.35322C19.9836 1.35322 21.5851 0.0329107 22.4701-3.05158L25.9714-13.4987L44.9416-13.4987L48.4429-3.0002C49.384 0.140318 50.9768 1.35322 53.5872 1.35322C56.5129 1.35322 58.5595-0.549844 58.5595-3.28592C58.5595-4.46003 58.2721-5.53072 57.8504-6.80992L43.0768-46.389C41.656-50.1995 39.152-52.0671 35.4111-52.0671C31.8061-52.0671 29.3541-50.2469 27.9452-46.389L13.1574-6.80992C12.7026-5.64841 12.4609-4.42124 12.4609-3.28592C12.4609-0.444753 14.3938 1.35322 17.4395 1.35322ZM28.349-21.1217L34.882-41.4562L35.9179-41.4562L42.556-21.1217Z"/>
  </g>
  <g id="Regular-M" transform="matrix(1 0 0 1 1381.77 1126)">
   <path d="M68.5362 0.782116C71.0847 0.782116 72.369-0.202204 73.3016-2.90595L93.8178-60.3925L94.1083-60.3925L114.687-2.90595C115.609-0.202204 116.904 0.782116 119.442 0.782116C121.99 0.782116 123.679-0.792597 123.679-3.23757C123.679-4.05608 123.513-4.82284 123.13-5.85891L100.23-66.839C99.1113-69.8322 97.0708-71.314 93.9942-71.314C90.9176-71.314 88.9289-69.8428 87.8516-66.839L64.9105-5.80716C64.5788-4.77108 64.413-4.05608 64.413-3.18582C64.413-0.740843 65.9877 0.782116 68.5362 0.782116ZM78.7331-20.1979L109.348-20.1979C111.369-20.1979 112.995-21.8244 112.995-23.8448C112.995-25.9064 111.369-27.4917 109.348-27.4917L78.7331-27.4917C76.6715-27.4917 75.045-25.9064 75.045-23.8448C75.045-21.8244 76.6715-20.1979 78.7331-20.1979ZM16.5017 0.782116C18.5327 0.782116 19.8793-0.253958 20.6048-2.64718L24.6636-14.6076L43.7283-14.6076L47.7872-2.64718C48.6162-0.150451 49.9523 0.782116 51.9526 0.782116C54.3764 0.782116 56.0346-0.740843 56.0346-2.92705C56.0346-3.91137 55.7652-4.83339 55.4336-5.86946L40.271-46.2172C39.1525-49.1691 37.0603-50.7228 34.1907-50.7228C31.3729-50.7228 29.343-49.2621 28.2139-46.2172L13.0101-5.86946C12.6267-4.93689 12.4609-3.96312 12.4609-2.92705C12.4609-0.689089 14.0568 0.782116 16.5017 0.782116ZM26.8403-20.9602L33.6214-41.2896L34.7706-41.2896L41.6034-20.9602Z"/>
  </g>
  <g id="Light-M" transform="matrix(1 0 0 1 1085.92 1126)">
   <path d="M66.5171 0.730784C68.4496 0.730784 69.3917-0.0310951 70.1189-2.06751L92.4832-62.7538L92.7394-62.7538L115.166-2.06751C115.866-0.0310951 116.835 0.730784 118.74 0.730784C120.673 0.730784 121.968-0.467489 121.968-2.33069C121.968-2.96098 121.836-3.55663 121.538-4.35315L97.2696-67.9341C96.4591-70.1231 94.949-71.2797 92.6424-71.2797C90.3359-71.2797 88.8604-70.1507 88.0569-67.9341L63.7811-4.31851C63.518-3.52198 63.3864-2.96098 63.3864-2.29605C63.3864-0.432846 64.5846 0.730784 66.5171 0.730784ZM76.6798-21.7379L108.647-21.7379C110.205-21.7379 111.438-22.9708 111.438-24.5292C111.438-26.0946 110.205-27.3205 108.647-27.3205L76.6798-27.3205C75.1144-27.3205 73.8815-26.0946 73.8815-24.5292C73.8815-22.9708 75.1144-21.7379 76.6798-21.7379ZM15.5777 0.730784C17.1638 0.730784 18.1682-0.0657378 18.7568-1.8943L23.7397-15.7712L43.8139-15.7712L48.7967-1.8943C49.4547 0.00354763 50.4314 0.730784 52.0381 0.730784C53.846 0.730784 55.1619-0.432846 55.1619-2.12284C55.1619-2.88472 54.961-3.58429 54.6978-4.38081L38.2861-47.415C37.4756-49.5969 35.931-50.7399 33.7629-50.7399C31.6296-50.7399 30.1472-49.6385 29.309-47.415L12.8904-4.38081C12.5925-3.65357 12.4609-2.91936 12.4609-2.12284C12.4609-0.398203 13.7145 0.730784 15.5777 0.730784ZM25.5056-20.8062L33.3819-42.9836L34.1717-42.9836L42.0825-20.8062Z"/>
  </g>
  <g id="Thin-M" transform="matrix(1 0 0 1 790.339 1126)">
   <path d="M63.8467 0.662892C64.9645 0.662892 65.454 0.195211 65.9096-0.958613L90.718-65.8768L90.9289-65.8768L115.8-0.958613C116.205 0.195211 116.745 0.662892 117.812 0.662892C118.93 0.662892 119.705-0.0375075 119.705-1.13127C119.705-1.51262 119.618-1.88196 119.434-2.36166L93.3545-69.3825C92.9513-70.5078 92.1428-71.2345 90.8546-71.2345C89.5664-71.2345 88.7699-70.5581 88.3285-69.3825L62.2875-2.34964C62.1149-1.86995 62.0285-1.51262 62.0285-1.11926C62.0285-0.0254954 62.7289 0.662892 63.8467 0.662892ZM73.9641-23.7747L107.719-23.7747C108.666-23.7747 109.379-24.4871 109.379-25.4345C109.379-26.3436 108.666-27.0942 107.719-27.0942L73.9641-27.0942C73.055-27.0942 72.3426-26.3436 72.3426-25.4345C72.3426-24.4871 73.055-23.7747 73.9641-23.7747ZM14.3557 0.662892C15.3534 0.662892 15.9051 0.183199 16.3127-0.898553L22.5176-17.31L43.927-17.31L50.1319-0.898553C50.5636 0.207223 51.065 0.662892 52.1513 0.662892C53.1444 0.662892 54.0077-0.0254954 54.0077-1.0592C54.0077-1.52688 53.8974-1.93226 53.7247-2.41195L35.661-48.9991C35.2579-50.1627 34.4373-50.7625 33.1972-50.7625C31.969-50.7625 31.2108-50.1364 30.7574-48.9991L12.7319-2.41195C12.5473-1.95628 12.4609-1.53889 12.4609-1.0592C12.4609-0.0134833 13.2619 0.662892 14.3557 0.662892ZM23.7405-20.6025L33.065-45.224L33.3796-45.224L42.7162-20.6025Z"/>
  </g>
  <g id="Ultralight-M" transform="matrix(1 0 0 1 494.208 1126)">
   <path d="M62.479 0.628118C63.1795 0.628118 63.4371 0.311124 63.7537-0.39064L89.8139-67.4764L90.0016-67.4764L116.124-0.39064C116.379 0.311124 116.698 0.628118 117.337 0.628118C118.037 0.628118 118.546 0.182727 118.546-0.516933C118.546-0.770781 118.482-1.02421 118.356-1.34162L91.3492-70.1243C91.1547-70.7049 90.7055-71.2113 89.9389-71.2113C89.1723-71.2113 88.7236-70.7667 88.4676-70.1243L61.5225-1.3412C61.3962-1.02379 61.3331-0.770781 61.3331-0.516512C61.3331 0.183148 61.7785 0.628118 62.479 0.628118ZM72.5732-24.8179L107.244-24.8179C107.878-24.8179 108.324-25.2637 108.324-25.8981C108.324-26.4711 107.878-26.9783 107.244-26.9783L72.5732-26.9783C72.0002-26.9783 71.5544-26.4711 71.5544-25.8981C71.5544-25.2637 72.0002-24.8179 72.5732-24.8179ZM13.7298 0.628118C14.426 0.628118 14.746 0.310703 15.0609-0.388536L21.8917-18.0982L43.985-18.0982L50.8158-0.388536C51.1315 0.311545 51.3896 0.628118 52.2092 0.628118C52.7851 0.628118 53.4166 0.183148 53.4166-0.514408C53.4166-0.831402 53.3526-1.08609 53.2263-1.40351L34.3164-49.8105C34.1219-50.4525 33.6723-50.7741 32.9074-50.7741C32.1429-50.7741 31.7556-50.3914 31.4992-49.8105L12.6508-1.40351C12.5241-1.08693 12.4609-0.831823 12.4609-0.514408C12.4609 0.183568 13.0301 0.628118 13.7298 0.628118ZM22.8363-20.4982L32.9028-46.3715L32.9739-46.3715L43.0408-20.4982Z"/>
  </g>
  <g id="Black-S" transform="matrix(1 0 0 1 2868.26 696)">
   <path d="M71.3379-4.29688C76.6602-4.29688 79.6387-6.73828 80.957-12.3047L91.1133-50.2441L91.4551-50.2441L101.074-12.3047C102.393-6.73828 105.371-4.29688 110.693-4.29688C116.65-4.29688 120.508-7.86133 120.508-13.2812C120.508-15.5273 120.215-17.2852 119.482-19.4336L107.568-54.9805C105.029-62.5488 99.8535-66.1133 91.2109-66.1133C83.1055-66.1133 78.0273-62.5 75.4395-54.9805L62.9883-18.457C62.3535-16.5527 62.0117-14.6484 62.0117-12.9883C62.0117-7.61719 65.5762-4.29688 71.3379-4.29688ZM76.2207-16.1621L105.811-16.1621C109.57-16.1621 112.598-19.1895 112.598-22.9492C112.598-26.709 109.57-29.7363 105.811-29.7363L76.2207-29.7363C72.4609-29.7363 69.4336-26.709 69.4336-22.9492C69.4336-19.1895 72.4609-16.1621 76.2207-16.1621ZM17.334-4.29688C21.3379-4.29688 23.584-6.44531 24.9023-11.5723L25.4883-13.8672L40.0391-13.8672L40.625-11.3281C41.7969-6.34766 44.043-4.29688 48.4863-4.29688C52.7344-4.29688 55.8594-7.27539 55.8594-11.5723C55.8594-13.2324 55.5664-14.6484 54.8828-16.6016L44.7754-44.7266C42.4805-51.0742 38.916-53.7598 32.5684-53.7598C26.6602-53.7598 23.0957-50.9277 20.8984-44.7266L10.8887-16.6016C10.2539-14.7949 9.76562-12.8418 9.76562-11.5723C9.76562-6.98242 12.5977-4.29688 17.334-4.29688ZM28.125-24.8047L32.3242-40.8691L32.666-40.8691L37.1582-24.8047Z"/>
  </g>
  <g id="Heavy-S" transform="matrix(1 0 0 1 2574.24 696)">
   <path d="M67.408-4.93072C72.0158-4.93072 74.5679-7.00334 75.771-11.8322L87.1143-51.0854L87.433-51.0854L98.3775-11.8322C99.5806-7.00334 102.133-4.93072 106.74-4.93072C111.833-4.93072 115.137-7.9881 115.137-12.6474C115.137-14.5362 114.879-16.0405 114.239-17.9008L101.057-56.0407C98.8752-62.4682 94.4831-65.5025 87.2235-65.5025C80.3742-65.5025 76.0682-62.4309 73.8606-56.0407L60.257-17.1432C59.7029-15.4694 59.4072-13.8648 59.4072-12.4121C59.4072-7.79005 62.4646-4.93072 67.408-4.93072ZM73.0284-17.7064L101.143-17.7064C104.442-17.7064 107.1-20.3649 107.1-23.6637C107.1-26.974 104.442-29.6211 101.143-29.6211L73.0284-29.6211C69.7181-29.6211 67.0596-26.974 67.0596-23.6637C67.0596-20.3649 69.7181-17.7064 73.0284-17.7064ZM16.4005-4.93072C19.8858-4.93072 21.8899-6.79105 23.0469-11.215L24.1399-14.962L38.6677-14.962L39.7607-11.0285C40.8288-6.69339 42.8329-4.93072 46.6424-4.93072C50.4064-4.93072 53.1396-7.52893 53.1396-11.2726C53.1396-12.7484 52.8582-14.0261 52.2668-15.7372L41.8827-44.3808C39.8875-49.8641 36.7148-52.2501 31.2546-52.2501C26.1416-52.2501 22.9805-49.7753 21.0598-44.3808L10.7389-15.7372C10.1732-14.1611 9.76562-12.4615 9.76562-11.2726C9.76562-7.29358 12.2634-4.93072 16.4005-4.93072ZM26.6038-24.6433L30.9413-40.4658L31.4559-40.4658L36.0288-24.6433Z"/>
  </g>
  <g id="Bold-S" transform="matrix(1 0 0 1 2280.53 696)">
   <path d="M63.0127-5.63965C66.8213-5.63965 68.8965-7.2998 69.9707-11.3037L82.6416-52.0264L82.9346-52.0264L95.3613-11.3037C96.4355-7.2998 98.5107-5.63965 102.319-5.63965C106.445-5.63965 109.131-8.12988 109.131-11.9385C109.131-13.4277 108.911-14.6484 108.374-16.1865L93.7744-57.2266C91.9922-62.3779 88.4766-64.8193 82.7637-64.8193C77.3193-64.8193 73.877-62.3535 72.0947-57.2266L57.2021-15.6738C56.7383-14.2578 56.4941-12.9883 56.4941-11.7676C56.4941-7.9834 58.9844-5.63965 63.0127-5.63965ZM69.458-19.4336L95.9229-19.4336C98.7061-19.4336 100.952-21.6797 100.952-24.4629C100.952-27.2705 98.7061-29.4922 95.9229-29.4922L69.458-29.4922C66.6504-29.4922 64.4043-27.2705 64.4043-24.4629C64.4043-21.6797 66.6504-19.4336 69.458-19.4336ZM15.3564-5.63965C18.2617-5.63965 19.9951-7.17773 20.9717-10.8154L22.6318-16.1865L37.1338-16.1865L38.7939-10.6934C39.7461-7.08008 41.4795-5.63965 44.5801-5.63965C47.8027-5.63965 50.0977-7.8125 50.0977-10.9375C50.0977-12.207 49.8291-13.3301 49.3408-14.7705L38.6475-43.9941C36.9873-48.5107 34.2529-50.5615 29.7852-50.5615C25.5615-50.5615 22.8516-48.4863 21.2402-43.9941L10.5713-14.7705C10.083-13.4521 9.76562-12.0361 9.76562-10.9375C9.76562-7.6416 11.8896-5.63965 15.3564-5.63965ZM24.9023-24.4629L29.3945-40.0146L30.1025-40.0146L34.7656-24.4629Z"/>
  </g>
  <g id="Semibold-S" transform="matrix(1 0 0 1 1985.89 696)">
   <path d="M59.9823-6.12842C63.2399-6.12842 64.9863-7.5042 65.9717-10.9394L79.5579-52.6751L79.8331-52.6751L93.2818-10.9394C94.2672-7.5042 96.0136-6.12842 99.2712-6.12842C102.731-6.12842 104.99-8.22764 104.99-11.4497C104.99-12.6635 104.797-13.6887 104.331-15.0046L88.7534-58.0441C87.2467-62.3157 84.3354-64.3483 79.6889-64.3483C75.2132-64.3483 72.3662-62.3002 70.8772-58.0441L55.096-14.6607C54.6943-13.4225 54.4857-12.384 54.4857-11.3232C54.4857-8.1167 56.585-6.12842 59.9823-6.12842ZM66.9964-20.6244L92.3237-20.6244C94.7515-20.6244 96.7132-22.5861 96.7132-25.0139C96.7132-27.4749 94.7515-29.4033 92.3237-29.4033L66.9964-29.4033C64.5354-29.4033 62.5736-27.4749 62.5736-25.0139C62.5736-22.5861 64.5354-20.6244 66.9964-20.6244ZM14.6366-6.12842C17.142-6.12842 18.6888-7.44434 19.5409-10.5399L21.5921-17.0308L36.0763-17.0308L38.1274-10.4623C38.9996-7.34668 40.5464-6.12842 43.1582-6.12842C46.0076-6.12842 48.0004-8.00801 48.0004-10.7064C48.0004-11.8338 47.7407-12.8502 47.3235-14.104L36.4169-43.7275C34.9878-47.5776 32.5556-49.3974 28.7721-49.3974C25.1616-49.3974 22.7627-47.5977 21.3646-43.7275L10.4558-14.104C10.0208-12.9634 9.76562-11.7429 9.76562-10.7064C9.76562-7.88154 11.6319-6.12842 14.6366-6.12842ZM23.7293-24.3385L28.3281-39.7036L29.1694-39.7036L33.8947-24.3385Z"/>
  </g>
  <g id="Medium-S" transform="matrix(1 0 0 1 1690.75 696)">
   <path d="M57.6846-6.49902C60.5244-6.49902 62.0215-7.65918 62.9395-10.6631L77.2197-53.167L77.4814-53.167L91.7051-10.6631C92.623-7.65918 94.1201-6.49902 96.96-6.49902C99.9141-6.49902 101.85-8.30176 101.85-11.0791C101.85-12.084 101.677-12.9609 101.265-14.1084L84.9463-58.6641C83.6484-62.2686 81.1953-63.9912 77.3574-63.9912C73.6162-63.9912 71.2207-62.2598 69.9541-58.6641L53.499-13.8926C53.1445-12.7891 52.9629-11.9258 52.9629-10.9863C52.9629-8.21777 54.7656-6.49902 57.6846-6.49902ZM65.1299-21.5273L89.5947-21.5273C91.7529-21.5273 93.499-23.2734 93.499-25.4316C93.499-27.6299 91.7529-29.3359 89.5947-29.3359L65.1299-29.3359C62.9316-29.3359 61.1855-27.6299 61.1855-25.4316C61.1855-23.2734 62.9316-21.5273 65.1299-21.5273ZM14.0908-6.49902C16.293-6.49902 17.6982-7.64648 18.4561-10.3311L20.8037-17.6709L35.2744-17.6709L37.6221-10.2871C38.4336-7.54883 39.8389-6.49902 42.0801-6.49902C44.6465-6.49902 46.4102-8.15625 46.4102-10.5312C46.4102-11.5508 46.1572-12.4863 45.7939-13.5986L34.7256-43.5254C33.4717-46.8701 31.2686-48.5146 28.0039-48.5146C24.8584-48.5146 22.6953-46.9238 21.459-43.5254L10.3682-13.5986C9.97363-12.5928 9.76562-11.5205 9.76562-10.5312C9.76562-8.06348 11.4365-6.49902 14.0908-6.49902ZM22.8398-24.2441L27.5195-39.4678L28.4619-39.4678L33.2344-24.2441Z"/>
  </g>
  <g id="Regular-S" transform="matrix(1 0 0 1 1396.08 696)">
   <path d="M54.6875-6.98242C56.9824-6.98242 58.1543-7.86133 58.9844-10.3027L74.1699-53.8086L74.4141-53.8086L89.6484-10.3027C90.4785-7.86133 91.6504-6.98242 93.9453-6.98242C96.2402-6.98242 97.7539-8.39844 97.7539-10.5957C97.7539-11.3281 97.6074-12.0117 97.2656-12.9395L79.9805-59.4727C78.9551-62.207 77.0996-63.5254 74.3164-63.5254C71.5332-63.5254 69.7266-62.207 68.75-59.4727L51.416-12.8906C51.123-11.9629 50.9766-11.3281 50.9766-10.5469C50.9766-8.34961 52.3926-6.98242 54.6875-6.98242ZM62.6953-22.7051L86.0352-22.7051C87.8418-22.7051 89.3066-24.1699 89.3066-25.9766C89.3066-27.832 87.8418-29.248 86.0352-29.248L62.6953-29.248C60.8398-29.248 59.375-27.832 59.375-25.9766C59.375-24.1699 60.8398-22.7051 62.6953-22.7051ZM13.3789-6.98242C15.1855-6.98242 16.4062-7.91016 17.041-10.0586L19.7754-18.5059L34.2285-18.5059L36.9629-10.0586C37.6953-7.8125 38.916-6.98242 40.6738-6.98242C42.8711-6.98242 44.3359-8.34961 44.3359-10.3027C44.3359-11.1816 44.0918-12.0117 43.7988-12.9395L32.5195-43.2617C31.4941-45.9473 29.5898-47.3633 27.002-47.3633C24.4629-47.3633 22.6074-46.0449 21.582-43.2617L10.2539-12.9395C9.91211-12.1094 9.76562-11.2305 9.76562-10.3027C9.76562-8.30078 11.1816-6.98242 13.3789-6.98242ZM21.6797-24.1211L26.4648-39.1602L27.5391-39.1602L32.373-24.1211Z"/>
  </g>
  <g id="Light-S" transform="matrix(1 0 0 1 1100.13 696)">
   <path d="M52.9014-7.02783C54.6514-7.02783 55.5205-7.70996 56.169-9.56104L72.9893-55.8974L73.2031-55.8974L90.0723-9.56104C90.7056-7.70996 91.5898-7.02783 93.3247-7.02783C95.0747-7.02783 96.2402-8.11084 96.2402-9.79346C96.2402-10.3594 96.124-10.8916 95.8579-11.6074L77.3618-60.4414C76.6089-62.4644 75.2227-63.4951 73.1206-63.4951C71.0186-63.4951 69.666-62.4795 68.9316-60.4414L50.417-11.5737C50.1846-10.8579 50.0684-10.3594 50.0684-9.75977C50.0684-8.07715 51.1514-7.02783 52.9014-7.02783ZM60.8789-24.0674L85.4146-24.0674C86.8125-24.0674 87.9292-25.1841 87.9292-26.582C87.9292-27.9985 86.8125-29.0967 85.4146-29.0967L60.8789-29.0967C59.4624-29.0967 58.3457-27.9985 58.3457-26.582C58.3457-25.1841 59.4624-24.0674 60.8789-24.0674ZM12.5615-7.02783C13.9746-7.02783 14.8926-7.74365 15.4063-9.39258L18.958-19.5351L34.3042-19.5351L37.8559-9.39258C38.437-7.67627 39.3398-7.02783 40.7495-7.02783C42.4019-7.02783 43.564-8.07715 43.564-9.59131C43.564-10.2734 43.3804-10.9067 43.148-11.6226L30.7637-44.3213C30.0108-46.3257 28.5908-47.3784 26.6235-47.3784C24.6899-47.3784 23.3188-46.3779 22.5508-44.3213L10.148-11.6226C9.88184-10.9741 9.76562-10.3071 9.76562-9.59131C9.76562-8.04346 10.8789-7.02783 12.5615-7.02783ZM20.499-23.9849L26.2529-40.6587L27.0093-40.6587L32.7969-23.9849Z"/>
  </g>
  <g id="Thin-S" transform="matrix(1 0 0 1 804.42 696)">
   <path d="M50.5391-7.08789C51.5684-7.08789 52.0372-7.50977 52.4454-8.58009L71.4278-58.6601L71.6016-58.6601L90.6328-8.58009C91.0059-7.50977 91.5098-7.08789 92.5039-7.08789C93.5332-7.08789 94.2383-7.73047 94.2383-8.73244C94.2383-9.07814 94.1621-9.41018 93.9961-9.84573L73.8985-61.7226C73.5059-62.8047 72.7403-63.4551 71.5391-63.4551C70.3379-63.4551 69.5859-62.8398 69.1719-61.7226L49.0957-9.83206C48.9434-9.3965 48.8672-9.07814 48.8672-8.71876C48.8672-7.7168 49.5098-7.08789 50.5391-7.08789ZM58.4766-25.8691L84.5938-25.8691C85.4512-25.8691 86.1074-26.5254 86.1074-27.3828C86.1074-28.2187 85.4512-28.8965 84.5938-28.8965L58.4766-28.8965C57.6407-28.8965 56.9844-28.2187 56.9844-27.3828C56.9844-26.5254 57.6407-25.8691 58.4766-25.8691ZM11.4805-7.08789C12.3731-7.08789 12.8907-7.52344 13.2442-8.51173L17.877-20.8965L34.4043-20.8965L39.0371-8.51173C39.418-7.4961 39.9004-7.08789 40.8496-7.08789C41.7813-7.08789 42.543-7.7168 42.543-8.6504C42.543-9.07228 42.4395-9.44533 42.2871-9.88088L28.4414-45.7226C28.0489-46.8262 27.2695-47.3984 26.1231-47.3984C24.9902-47.3984 24.2598-46.8184 23.832-45.7226L10.0078-9.88088C9.8418-9.47268 9.76562-9.08595 9.76562-8.6504C9.76562-7.70313 10.4785-7.08789 11.4805-7.08789ZM18.9375-23.8047L25.9727-42.6406L26.3086-42.6406L33.3574-23.8047Z"/>
  </g>
  <g id="Ultralight-S" transform="matrix(1 0 0 1 508.222 696)">
   <path d="M49.3291-7.11865C49.9893-7.11865 50.253-7.40723 50.5382-8.07765L70.628-60.0751L70.7813-60.0751L90.9199-8.07765C91.1597-7.40723 91.4688-7.11865 92.0835-7.11865C92.7437-7.11865 93.2129-7.53565 93.2129-8.18898C93.2129-8.4219 93.1573-8.65139 93.0425-8.94339L72.1246-62.3789C71.9166-62.979 71.4688-63.4346 70.729-63.4346C69.9893-63.4346 69.5449-63.0244 69.2949-62.3789L48.419-8.93997C48.3076-8.64798 48.252-8.4219 48.252-8.18557C48.252-7.53223 48.669-7.11865 49.3291-7.11865ZM57.2461-26.792L84.1734-26.792C84.7539-26.792 85.1743-27.2124 85.1743-27.793C85.1743-28.3315 84.7539-28.7939 84.1734-28.7939L57.2461-28.7939C56.7076-28.7939 56.2871-28.3315 56.2871-27.793C56.2871-27.2124 56.7076-26.792 57.2461-26.792ZM10.9268-7.11865C11.5528-7.11865 11.8653-7.41065 12.1368-8.06056L17.3233-21.5937L34.4556-21.5937L39.6421-8.06056C39.9204-7.40381 40.1875-7.11865 40.9009-7.11865C41.4634-7.11865 42.02-7.53223 42.02-8.16847C42.02-8.45705 41.9575-8.6968 41.8462-8.9888L27.252-46.4404C27.044-47.0825 26.5928-47.4087 25.8667-47.4087C25.144-47.4087 24.7417-47.0439 24.4883-46.4404L9.93604-8.9888C9.82129-8.70364 9.76562-8.46047 9.76562-8.16847C9.76562-7.52881 10.2734-7.11865 10.9268-7.11865ZM18.1377-23.7124L25.8291-43.6557L25.9497-43.6557L33.6445-23.7124Z"/>
  </g>
 </g>
</svg>
